<svg xmlns="http://www.w3.org/2000/svg" xmlns:xlink="http://www.w3.org/1999/xlink" width="500" zoomAndPan="magnify" viewBox="0 0 375 374.999991" height="500" preserveAspectRatio="xMidYMid meet" version="1.0"><path fill="#5e4fff" d="M 112.265625 59.160156 C 113.953125 59.109375 115.644531 59.054688 117.324219 59.003906 C 117.90625 59.171875 118.273438 59.042969 118.238281 58.347656 C 118.324219 55.957031 118.675781 53.535156 118.4375 51.175781 C 118.167969 48.515625 119.152344 47.449219 121.679688 47.488281 C 126.347656 47.890625 131.011719 47.925781 135.675781 47.464844 C 140.769531 47.925781 145.871094 47.902344 150.972656 47.488281 C 155.636719 47.890625 160.296875 47.925781 164.964844 47.464844 C 170.058594 47.925781 175.160156 47.902344 180.261719 47.488281 C 184.929688 47.890625 189.585938 47.925781 194.253906 47.464844 C 199.351562 47.925781 204.441406 47.902344 209.550781 47.488281 C 214.207031 47.890625 218.878906 47.925781 223.542969 47.464844 C 228.636719 47.925781 233.738281 47.902344 238.835938 47.488281 C 243.742188 47.890625 248.632812 47.910156 253.535156 47.484375 C 255.707031 47.574219 257.875 47.796875 260.035156 47.710938 C 262.03125 47.625 262.863281 48.1875 262.765625 50.335938 C 262.644531 52.976562 262.867188 55.640625 262.945312 58.289062 C 264.847656 60.347656 267.34375 58.644531 269.457031 59.316406 C 269.542969 63.851562 269.621094 68.382812 269.710938 72.914062 C 269.710938 77.800781 269.710938 82.6875 269.710938 87.570312 C 269.710938 92.449219 269.710938 97.328125 269.710938 102.203125 C 269.667969 104.882812 269.605469 107.5625 269.578125 110.242188 C 269.5625 111.316406 269.820312 112.523438 268.15625 112.601562 C 261.695312 112.316406 262.550781 111.984375 262.949219 116.867188 C 262.582031 121.742188 262.582031 126.617188 262.949219 131.492188 C 262.785156 136.320312 262.621094 141.144531 262.457031 145.976562 C 259.476562 146.027344 256.5 146.085938 253.523438 146.136719 C 248.636719 146.136719 243.757812 146.136719 238.878906 146.136719 C 233.996094 145.800781 229.117188 145.804688 224.238281 146.136719 C 219.363281 146.136719 214.476562 146.136719 209.59375 146.136719 C 204.710938 145.800781 199.832031 145.804688 194.953125 146.136719 C 190.066406 146.136719 185.191406 146.136719 180.308594 146.136719 C 175.425781 145.800781 170.542969 145.804688 165.667969 146.136719 C 160.785156 146.136719 155.902344 146.136719 151.019531 146.136719 C 146.136719 145.800781 141.253906 145.804688 136.378906 146.136719 C 131.496094 146.136719 126.613281 146.136719 121.730469 146.136719 C 120.726562 146.070312 119.71875 145.996094 118.710938 145.929688 C 118.5625 141.109375 118.414062 136.292969 118.261719 131.476562 C 118.679688 126.609375 118.675781 121.742188 118.261719 116.875 C 118.058594 115.296875 119.964844 112.28125 116.746094 112.625 C 111.972656 113.125 111.726562 110.816406 112.042969 107.296875 C 112.191406 105.625 111.957031 103.921875 111.902344 102.238281 C 111.902344 97.339844 111.90625 92.441406 111.910156 87.542969 C 111.90625 82.675781 111.90625 77.808594 111.902344 72.941406 C 112.011719 68.347656 112.136719 63.753906 112.265625 59.160156 Z M 209.578125 56.121094 C 204.703125 56.121094 199.820312 56.121094 194.949219 56.117188 C 190.054688 56.121094 185.179688 56.121094 180.292969 56.121094 C 175.414062 56.121094 170.535156 56.121094 165.660156 56.121094 C 160.773438 56.121094 155.890625 56.121094 151.007812 56.121094 C 146.128906 56.121094 141.246094 56.121094 136.367188 56.121094 C 133.84375 56.066406 131.3125 56.082031 128.789062 55.933594 C 126.921875 55.824219 126.398438 56.585938 126.886719 58.277344 C 126.886719 63.15625 126.886719 68.035156 126.890625 72.914062 C 126.890625 77.792969 126.890625 82.679688 126.890625 87.5625 C 126.890625 92.445312 126.890625 97.320312 126.890625 102.199219 C 126.890625 107.082031 126.890625 111.96875 126.890625 116.851562 C 126.089844 119.800781 127.085938 121.03125 130.230469 120.632812 C 132.246094 120.375 134.316406 120.492188 136.359375 120.441406 C 141.246094 120.441406 146.132812 120.441406 151.015625 120.441406 C 154.195312 119.921875 158.925781 123.148438 159.726562 116.847656 C 163.015625 105.488281 170.714844 98.101562 181.070312 93.058594 C 183.476562 91.886719 185.566406 91.226562 187.308594 94.007812 C 188.296875 95.566406 189.5 95.847656 190.621094 94.125 C 192.484375 91.285156 194.675781 91.835938 197.191406 93.1875 C 201.609375 95.542969 205.644531 98.445312 209.566406 101.519531 C 209.792969 101.753906 210.007812 101.996094 210.234375 102.234375 C 214.027344 106.5 216.261719 111.628906 218.269531 116.871094 C 218.101562 121.660156 221.402344 120.648438 224.226562 120.4375 C 229.105469 120.4375 233.996094 120.4375 238.878906 120.4375 C 242.867188 120.488281 246.871094 120.359375 250.839844 120.640625 C 253.914062 120.859375 255.09375 119.886719 254.261719 116.839844 C 254.617188 111.957031 254.617188 107.074219 254.257812 102.195312 C 254.257812 97.316406 254.261719 92.433594 254.261719 87.550781 C 254.617188 82.667969 254.617188 77.789062 254.257812 72.90625 C 254.257812 68.027344 254.261719 63.144531 254.261719 58.261719 C 254.867188 56.488281 254.222656 55.859375 252.378906 55.917969 C 247.878906 56.046875 243.371094 56.046875 238.875 56.109375 C 233.992188 56.109375 229.113281 56.109375 224.234375 56.109375 C 219.355469 56.121094 214.460938 56.121094 209.578125 56.121094 Z M 253.5 137.441406 C 254.191406 137.574219 254.375 137.222656 254.277344 136.617188 C 254.589844 134.910156 254.59375 133.199219 254.257812 131.5 C 254.117188 128.707031 251.953125 130.003906 250.785156 129.996094 C 218.171875 129.917969 185.546875 129.929688 152.9375 129.929688 C 145.148438 129.929688 137.359375 129.882812 129.574219 129.984375 C 128.605469 129.992188 126.546875 128.84375 126.890625 131.492188 C 126.433594 137.675781 126.433594 137.683594 132.441406 137.667969 C 133.742188 137.664062 135.042969 137.523438 136.347656 137.449219 C 141.238281 137.824219 146.128906 137.824219 151.015625 137.449219 C 155.894531 137.820312 160.765625 137.824219 165.640625 137.449219 C 170.527344 137.824219 175.417969 137.824219 180.304688 137.449219 C 185.179688 137.820312 190.054688 137.824219 194.933594 137.449219 C 199.820312 137.824219 204.707031 137.824219 209.589844 137.449219 C 214.46875 137.820312 219.34375 137.824219 224.21875 137.449219 C 229.105469 137.824219 233.996094 137.824219 238.882812 137.449219 C 243.753906 137.8125 248.628906 137.84375 253.5 137.441406 Z M 188.765625 97.949219 C 187.65625 105.058594 186.660156 111.730469 185.546875 118.375 C 185.261719 120.125 185.628906 120.875 187.511719 120.652344 C 188.59375 120.527344 189.691406 120.566406 190.777344 120.644531 C 192.511719 120.773438 192.699219 120.074219 192.417969 118.496094 C 191.601562 113.847656 191.136719 109.136719 190.242188 104.503906 C 189.839844 102.46875 190.285156 100.175781 188.765625 97.949219 Z M 188.765625 97.949219 " fill-opacity="1" fill-rule="evenodd"/><path fill="#5e4fff" d="M 85.738281 321.84375 C 83.703125 324.457031 81.199219 326.316406 77.777344 326.652344 C 74.058594 326.53125 71.328125 324.683594 69.164062 321.804688 C 67.113281 317.074219 68.664062 312.042969 67.921875 307.210938 C 67.921875 302.34375 67.921875 297.476562 67.921875 292.609375 C 67.980469 290.792969 68.136719 288.976562 68.074219 287.167969 C 67.941406 283.519531 67.101562 280.210938 63.128906 278.789062 C 58.316406 277.222656 53.386719 278.171875 48.507812 278.105469 C 43.617188 278.105469 38.730469 278.105469 33.839844 278.101562 C 23.617188 277.523438 21.164062 279.847656 21.246094 290.074219 C 21.253906 290.90625 21.355469 291.746094 21.414062 292.578125 C 21.414062 297.464844 21.414062 302.34375 21.410156 307.226562 C 20.878906 311.777344 21.800781 316.414062 20.554688 320.917969 C 19.824219 321.953125 19.09375 322.984375 18.363281 324.015625 C 13.59375 327.492188 8.988281 327.335938 4.558594 323.378906 C 4.070312 322.625 3.585938 321.890625 3.105469 321.140625 C 1.625 316.582031 2.765625 311.855469 2.214844 307.238281 C 2.214844 302.34375 2.214844 297.457031 2.214844 292.566406 C 2.488281 287.710938 2.066406 282.792969 3.324219 278.003906 C 3.4375 275.878906 6.972656 274.171875 4.347656 271.777344 C 1.777344 269.4375 0.515625 266.601562 0.0625 263.285156 C 0.0585938 258.410156 0.0546875 253.53125 0.0546875 248.65625 C 0.0546875 243.765625 0.0546875 238.875 0.0546875 233.992188 C 0.0546875 229.117188 0.0546875 224.242188 0.0546875 219.371094 C 0.0546875 214.480469 0.0546875 209.589844 0.0546875 204.707031 C 0.0546875 199.832031 0.0546875 194.953125 0.0546875 190.082031 C 0.0546875 185.191406 0.0546875 180.300781 0.0546875 175.414062 C 0.0898438 170.535156 0.121094 165.65625 0.148438 160.785156 C 1.066406 157.542969 2.882812 154.914062 5.542969 152.863281 C 9.929688 150.761719 14.1875 150.980469 18.324219 153.542969 C 20.40625 155.601562 21.933594 157.988281 22.699219 160.835938 C 22.765625 165.699219 22.832031 170.558594 22.902344 175.417969 C 22.902344 180.300781 22.902344 185.1875 22.902344 190.074219 C 22.902344 194.953125 22.902344 199.832031 22.902344 204.710938 C 22.902344 209.597656 22.902344 214.480469 22.902344 219.359375 C 22.902344 224.238281 22.902344 229.117188 22.902344 234 C 22.832031 239.324219 22.796875 244.644531 22.679688 249.972656 C 22.648438 251.355469 23.101562 251.898438 24.53125 251.882812 C 32.515625 251.765625 40.507812 251.703125 48.492188 251.621094 C 49.824219 251.695312 51.15625 251.820312 52.484375 251.820312 C 60.757812 251.828125 69.035156 251.734375 77.304688 251.820312 C 82.613281 251.875 86.722656 254.058594 88.742188 259.242188 C 90.515625 263.804688 89.285156 268.160156 85.078125 271.9375 C 84.125 272.796875 83.722656 273.34375 84.367188 274.589844 C 86.613281 278.933594 86.855469 283.664062 86.835938 288.429688 C 86.804688 297.308594 86.816406 306.191406 86.835938 315.070312 C 86.835938 317.402344 86.71875 319.679688 85.738281 321.84375 Z M 85.738281 321.84375 " fill-opacity="1" fill-rule="evenodd"/><path fill="#5e4fff" d="M 99.675781 307.21875 C 99.144531 302.34375 98.613281 297.472656 98.082031 292.601562 C 97.558594 287.691406 97.296875 282.746094 96.226562 277.90625 C 95.199219 268.46875 94.121094 259.050781 93.183594 249.617188 C 92.949219 247.304688 91.390625 248.046875 90.25 248.042969 C 79.894531 248 69.527344 247.746094 59.183594 248.128906 C 49.449219 248.496094 40.957031 246.050781 33.832031 239.296875 C 32.648438 237.523438 31.46875 235.742188 30.289062 233.976562 C 28.492188 229.25 28.714844 224.292969 28.519531 219.375 C 28.519531 214.484375 28.519531 209.589844 28.519531 204.695312 C 28.519531 199.828125 28.519531 194.957031 28.519531 190.085938 C 28.519531 185.195312 28.519531 180.296875 28.519531 175.40625 C 28.546875 170.535156 28.566406 165.664062 28.59375 160.792969 C 28.964844 157.636719 29.742188 154.628906 31.378906 151.839844 C 40.503906 136.304688 64.480469 134.296875 76.207031 148.1875 C 79.648438 152.269531 82.816406 156.589844 86.105469 160.796875 C 88.082031 163.488281 89.933594 166.28125 92.480469 168.496094 C 101.171875 178.785156 109.226562 181.039062 120.300781 176.277344 C 120.765625 176.167969 121.238281 176.0625 121.707031 175.953125 C 126.492188 174.34375 131.28125 172.695312 136.1875 175.585938 C 140.828125 179.507812 142.246094 184.316406 140.164062 190.082031 C 138.238281 193.410156 135.285156 195.269531 131.707031 196.542969 C 123.5 199.46875 115.070312 200.890625 106.386719 200.933594 C 101.683594 199.980469 96.933594 199.195312 92.566406 197.0625 C 89.070312 194.839844 85.578125 192.609375 82.0625 190.367188 C 82.0625 199.203125 82.0625 207.800781 82.0625 216.382812 C 81.628906 217.382812 81.652344 218.386719 82.023438 219.394531 C 81.238281 221.605469 82.710938 221.492188 84.132812 221.488281 C 90.460938 221.464844 96.785156 221.441406 103.113281 221.457031 C 111.949219 221.480469 116.460938 225.230469 118.253906 233.984375 C 119.328125 243.765625 120.121094 253.582031 121.773438 263.289062 C 122.304688 268.167969 122.835938 273.046875 123.359375 277.925781 C 123.96875 282.828125 124.578125 287.734375 125.1875 292.640625 C 125.414062 297.539062 125.902344 302.414062 126.890625 307.21875 C 127.277344 312.511719 127.214844 317.691406 123.175781 321.855469 C 122.671875 322.289062 122.160156 322.722656 121.648438 323.144531 C 116.945312 325.863281 112.117188 326.238281 107.160156 323.878906 C 106.238281 323.179688 105.308594 322.472656 104.386719 321.769531 C 100.484375 317.671875 100.671875 312.253906 99.675781 307.21875 Z M 99.675781 307.21875 " fill-opacity="1" fill-rule="evenodd"/><path fill="#5e4fff" d="M 224.238281 320.558594 C 204.390625 320.515625 184.53125 320.476562 164.679688 320.441406 C 156.761719 320.417969 148.839844 320.261719 140.925781 320.492188 C 138.046875 320.578125 137.605469 319.636719 137.613281 317.035156 C 137.703125 287.558594 137.613281 258.070312 137.75 228.597656 C 137.761719 225.371094 137.050781 224.324219 133.75 224.605469 C 129.765625 224.957031 125.722656 224.71875 121.703125 224.738281 C 118.042969 224.195312 115.335938 222.21875 113.277344 219.226562 C 110.824219 213.550781 112.15625 208.773438 116.765625 204.800781 C 119.550781 203.476562 122.480469 203.113281 125.558594 203.140625 C 134.035156 203.214844 142.515625 203.105469 150.992188 203.070312 C 155.886719 203.070312 160.773438 203.070312 165.664062 203.078125 C 170.53125 203.070312 175.40625 203.070312 180.28125 203.070312 C 185.171875 203.070312 190.066406 203.070312 194.957031 203.078125 C 199.824219 203.070312 204.699219 203.070312 209.574219 203.070312 C 214.464844 203.070312 219.359375 203.070312 224.246094 203.078125 C 229.113281 203.070312 233.988281 203.070312 238.863281 203.070312 C 243.742188 203.65625 248.839844 202.253906 253.527344 204.640625 C 253.601562 204.847656 253.742188 204.921875 253.949219 204.859375 C 257.835938 208.417969 259.824219 212.578125 257.835938 217.847656 C 256.074219 222.535156 252.242188 224.625 245.765625 224.671875 C 243.464844 224.6875 241.160156 224.769531 238.859375 224.835938 C 233.023438 224.390625 233.015625 224.390625 233.035156 230.050781 C 233.039062 231.367188 233.109375 232.6875 233.140625 234 C 233.140625 238.886719 233.140625 243.777344 233.140625 248.664062 C 233.140625 253.539062 233.140625 258.417969 233.140625 263.285156 C 233.140625 268.179688 233.140625 273.070312 233.140625 277.953125 C 233.140625 282.832031 233.140625 287.703125 233.140625 292.574219 C 233.140625 297.46875 233.140625 302.355469 233.140625 307.242188 C 233.105469 308.558594 233.050781 309.875 233.027344 311.191406 C 233 314.074219 234.074219 317.730469 232.695312 319.640625 C 231.066406 321.917969 227.125 319.914062 224.238281 320.558594 Z M 224.238281 320.558594 " fill-opacity="1" fill-rule="evenodd"/><path fill="#5e4fff" d="M 270.851562 321.769531 C 269.933594 322.46875 269.003906 323.164062 268.082031 323.863281 C 263.117188 326.199219 258.304688 325.910156 253.613281 323.121094 C 253.101562 322.703125 252.589844 322.277344 252.085938 321.851562 C 248.050781 317.691406 247.984375 312.515625 248.363281 307.21875 C 249.351562 302.414062 249.816406 297.546875 250.101562 292.648438 C 250.691406 287.738281 251.296875 282.835938 251.890625 277.925781 C 252.5 273.054688 253.402344 268.21875 253.46875 263.289062 C 253.714844 262.101562 254.042969 260.925781 254.175781 259.726562 C 255.191406 251.140625 256.117188 242.554688 257.15625 233.976562 C 258.085938 226.179688 263.246094 221.605469 271.136719 221.472656 C 275.03125 221.398438 278.929688 221.378906 282.820312 221.328125 C 285.71875 221.378906 288.609375 221.398438 291.503906 221.496094 C 293.085938 221.542969 293.851562 221.0625 293.210938 219.378906 C 293.628906 214.484375 293.628906 209.589844 293.210938 204.695312 C 293.210938 199.929688 293.210938 195.15625 293.210938 189.824219 C 289.75 192.863281 286.375 195.011719 282.824219 196.90625 C 278.226562 199.339844 273.171875 200.097656 268.136719 200.945312 C 263.257812 200.511719 258.390625 200.0625 253.507812 199.625 C 248.628906 197.886719 243.523438 196.84375 238.851562 194.53125 C 237.589844 193.046875 236.324219 191.566406 235.0625 190.085938 C 233.023438 184.328125 234.375 179.492188 239.039062 175.574219 L 239.003906 175.597656 C 243.925781 172.628906 248.726562 174.386719 253.527344 175.957031 C 254 176.0625 254.46875 176.167969 254.945312 176.277344 C 265.867188 181.101562 274.363281 178.691406 282.882812 168.351562 C 285.386719 166.183594 287.207031 163.449219 289.136719 160.804688 C 291.359375 157.921875 293.636719 155.078125 295.796875 152.144531 C 299.082031 147.679688 302.953125 144.003906 308.035156 141.519531 C 324.738281 133.34375 345.691406 144.65625 346.648438 160.800781 C 346.671875 165.675781 346.695312 170.542969 346.71875 175.421875 C 346.71875 180.3125 346.71875 185.207031 346.71875 190.097656 C 346.71875 194.96875 346.71875 199.839844 346.71875 204.707031 C 346.71875 209.605469 346.71875 214.496094 346.71875 219.386719 C 346.519531 224.304688 346.777344 229.269531 344.945312 233.980469 C 343.769531 235.753906 342.597656 237.535156 341.421875 239.308594 C 337.390625 243.046875 332.796875 245.796875 327.472656 247.289062 C 326.644531 247.1875 325.90625 247.363281 325.285156 247.945312 C 320.894531 248.011719 316.5 248.082031 312.109375 248.148438 C 307.21875 248.148438 302.320312 248.140625 297.4375 248.140625 C 293.050781 248.101562 288.664062 248.074219 284.28125 248.015625 C 283.132812 248.003906 282.222656 247.945312 282.058594 249.59375 C 281.109375 259.042969 280.042969 268.46875 279.007812 277.90625 C 277.953125 282.753906 277.675781 287.695312 277.15625 292.613281 C 276.628906 297.484375 276.097656 302.355469 275.566406 307.230469 C 274.550781 312.253906 274.777344 317.679688 270.851562 321.769531 Z M 270.851562 321.769531 " fill-opacity="1" fill-rule="evenodd"/><path fill="#5e4fff" d="M 372.136719 321.144531 C 371.40625 321.734375 370.925781 322.488281 370.6875 323.394531 C 366.25 327.296875 361.644531 327.542969 356.867188 324.023438 C 356.140625 322.996094 355.414062 321.964844 354.675781 320.933594 C 353.457031 316.425781 354.363281 311.78125 353.824219 307.230469 C 353.824219 302.34375 353.820312 297.464844 353.820312 292.582031 C 353.863281 290.304688 354.042969 288.019531 353.925781 285.746094 C 353.703125 281.371094 351.171875 278.636719 346.789062 278.097656 C 345.027344 277.878906 343.199219 278.097656 341.398438 278.109375 C 336.507812 278.109375 331.613281 278.109375 326.726562 278.109375 C 321.847656 278.183594 316.917969 277.222656 312.105469 278.792969 C 309.148438 279.8125 307.785156 282.082031 307.347656 285.011719 C 306.964844 287.535156 307.035156 290.082031 307.3125 292.617188 C 307.3125 297.484375 307.3125 302.351562 307.3125 307.21875 C 306.574219 312.042969 308.109375 317.078125 306.046875 321.800781 C 303.878906 324.65625 301.171875 326.539062 297.453125 326.660156 C 294.019531 326.359375 291.558594 324.421875 289.496094 321.851562 C 287.441406 317.140625 289.035156 312.097656 288.171875 307.273438 C 288.578125 302.363281 288.578125 297.460938 288.175781 292.550781 C 288.703125 287.695312 288.121094 282.753906 289.351562 277.953125 C 289.457031 275.945312 292.824219 274.265625 290.191406 272.050781 C 287.414062 269.710938 286.132812 266.742188 285.621094 263.292969 C 286.683594 255.914062 289.140625 253.484375 297.4375 251.632812 C 302.324219 251.960938 307.21875 251.980469 312.105469 251.632812 C 316.980469 251.960938 321.847656 251.964844 326.722656 251.632812 C 331.613281 251.960938 336.507812 251.980469 341.398438 251.632812 C 344.183594 251.703125 346.992188 251.625 349.761719 251.875 C 352.480469 252.128906 352.910156 250.875 352.335938 248.664062 C 352.335938 243.777344 352.339844 238.894531 352.339844 234.015625 C 352.339844 229.132812 352.335938 224.25 352.335938 219.375 C 352.335938 214.5 352.339844 209.609375 352.339844 204.726562 C 352.339844 199.847656 352.335938 194.96875 352.335938 190.089844 C 352.335938 185.203125 352.339844 180.316406 352.339844 175.433594 C 352.402344 170.578125 352.464844 165.710938 352.527344 160.847656 C 353.328125 158.011719 354.839844 155.613281 356.933594 153.566406 C 361.0625 150.984375 365.328125 150.78125 369.710938 152.878906 C 372.367188 154.933594 374.140625 157.589844 375.109375 160.800781 C 375.136719 165.683594 375.164062 170.550781 375.191406 175.429688 C 375.191406 180.320312 375.191406 185.207031 375.191406 190.097656 C 375.191406 194.96875 375.191406 199.847656 375.191406 204.722656 C 375.191406 209.609375 375.191406 214.5 375.191406 219.386719 C 375.191406 224.257812 375.191406 229.136719 375.191406 234.007812 C 375.191406 238.894531 375.191406 243.785156 375.191406 248.671875 C 375.191406 253.546875 375.1875 258.425781 375.183594 263.300781 C 374.792969 265.5625 374.628906 268.175781 372.785156 269.582031 C 369.265625 272.265625 369.875 274.972656 371.910156 278.023438 C 373.191406 282.808594 372.734375 287.726562 373.003906 292.582031 C 373.003906 297.476562 373.003906 302.363281 373.003906 307.25 C 372.472656 311.863281 373.59375 316.585938 372.136719 321.144531 Z M 372.136719 321.144531 " fill-opacity="1" fill-rule="evenodd"/><path fill="#5e4fff" d="M 172.585938 72.9375 C 173.75 65.535156 177.660156 60.285156 185.035156 58.449219 C 191.71875 56.789062 197.515625 58.832031 201.933594 64.261719 C 203.984375 66.777344 204.964844 69.75 205.382812 72.9375 C 205.652344 78.859375 203.28125 83.605469 198.941406 87.476562 C 192.3125 91.640625 185.671875 91.527344 179.035156 87.503906 C 174.722656 83.605469 172.445312 78.808594 172.585938 72.9375 Z M 172.585938 72.9375 " fill-opacity="1" fill-rule="evenodd"/><path fill="#5e4fff" d="M 295.425781 131.425781 C 282.21875 120.171875 280.730469 101.070312 293.371094 87.726562 C 294.726562 86.652344 296.082031 85.578125 297.4375 84.507812 C 301.996094 81.851562 306.921875 80.324219 312.132812 79.644531 C 317.097656 80.316406 322.179688 80.417969 326.722656 82.929688 C 328.984375 84.457031 331.230469 85.996094 333.488281 87.527344 C 336.285156 90.671875 338.605469 94.144531 340.578125 97.851562 C 340.59375 99.457031 341.234375 100.871094 341.96875 102.261719 C 342.445312 107.148438 342.65625 112.027344 341.4375 116.851562 C 341.363281 117.15625 341.296875 117.457031 341.226562 117.753906 C 339.183594 122.628906 336.429688 127.027344 332.546875 130.664062 C 329.589844 132.734375 326.632812 134.738281 323.160156 135.925781 C 314.089844 139.015625 305.601562 137.597656 297.4375 133.003906 C 296.765625 132.472656 296.09375 131.953125 295.425781 131.425781 Z M 295.425781 131.425781 " fill-opacity="1" fill-rule="evenodd"/><path fill="#5e4fff" d="M 77.796875 132.996094 C 69.515625 137.695312 60.875 139.019531 51.734375 135.832031 C 48.386719 134.664062 45.519531 132.703125 42.679688 130.671875 C 39.355469 127.507812 36.835938 123.753906 34.695312 119.730469 C 34.695312 118.679688 34.484375 117.6875 33.792969 116.84375 C 32.609375 112.019531 32.789062 107.140625 33.265625 102.25 C 35.910156 93.882812 40.644531 87.15625 48.503906 82.894531 C 53.105469 80.625 58.0625 79.921875 63.109375 79.628906 C 68.316406 80.308594 73.230469 81.886719 77.800781 84.484375 C 79.160156 85.558594 80.519531 86.640625 81.878906 87.71875 C 88.226562 94.742188 91.40625 102.796875 90.273438 112.40625 C 89.355469 120.203125 85.445312 126.257812 79.816406 131.414062 C 79.144531 131.953125 78.472656 132.472656 77.796875 132.996094 Z M 77.796875 132.996094 " fill-opacity="1" fill-rule="evenodd"/></svg>