<svg version="1.2" xmlns="http://www.w3.org/2000/svg" viewBox="0 0 1324 494" width="1324" height="494">
	<title>Globe_Telecom_logo-svg</title>
	<style>
		.s0 { fill: #29348f } 
	</style>
	<g id="#29348fff">
		<path id="Layer" fill-rule="evenodd" class="s0" d="m643.8 150.1c25.4-9.7 54.5-9.4 79.4 1.5 12.1 5.4 23.3 12.9 32.4 22.5-7 6.8-14.3 13.4-21.3 20.2-10.2-10.3-23.5-17.5-37.7-20.3-14.2-2.7-29.3-1.6-42.7 3.8-12.8 4.9-23.7 14.4-30.5 26.3-7 11.9-10 25.8-10.5 39.5-0.4 14.7 2.3 29.7 9.4 42.8 6.6 12.5 17.2 22.9 30 29 13.2 6.6 28.3 8.2 42.8 7 10.6-0.9 21.1-3.4 31-7.2 0-16.4 0-32.8 0-49.2q-17.5 0-35.1 0 0-13.5 0-27.1 32.3 0 64.7 0 0 47.3 0 94.6c-20.7 10.4-43.7 16.2-66.9 16.9-24.4 1-49.5-5.7-68.7-21.1-12.5-9.8-22.2-23.1-28.3-37.8-6.1-14.4-8.7-30.1-8.5-45.7 0-24.5 7.3-49.6 23.1-68.7 9.9-12 22.9-21.4 37.4-27zm371.1-7.2c10 0 19.9 0 29.9 0q0 32.5 0 65c4.7-2.6 9.3-5.4 14.4-7.3 18-7.3 38.8-7.5 56.9-0.3 11.7 4.7 22 12.7 29.5 22.8 8.8 11.6 13.7 25.9 15.1 40.3 1.5 15.5-0.6 31.4-7.1 45.6-6.1 13.4-16.3 24.9-29.2 32.2-11.2 6.3-24.1 9.4-36.9 9.1-14.8 0.1-29.8-3.5-42.2-11.6-10.3-6.8-18.4-16.8-23.3-28.1-4.6-10.7-6.8-22.4-7.1-34q0-66.9 0-133.7zm63.7 80.5c-4.2 0.8-8.3 2.4-12 4.6-10.2 6-16.9 16.7-19.7 28.1-3.3 13.2-2.8 27.6 2.3 40.3 4.2 10.7 12.7 19.9 23.6 23.9 14.6 5.4 32.5 2.6 43.7-8.5 9.8-9.2 14.3-22.8 14.8-36 0.7-15.5-3.8-32.1-15.5-42.9-9.8-9.2-24.2-12.4-37.2-9.5zm-288.5-80.1c10 0 20-0.1 30 0-0.1 68.2 0 136.4-0.1 204.5q-15 0-29.9 0-0.1-102.2 0-204.5zm117.3 52.5c15.6-2.2 32 0.2 45.9 7.7 12.8 6.8 23.2 17.9 29.6 30.9 7.3 14.7 9.7 31.5 8.1 47.7-1.3 13.7-5.8 27.3-13.8 38.6-6.9 9.8-16.3 17.8-27.1 22.8-14.8 7-31.8 8.5-47.8 5.3-16-3.3-30.7-12.4-40.8-25.3-9.1-11.6-14.4-26-15.9-40.7-2-19.7 1.9-40.4 13.1-57 11-16.4 29.2-27.6 48.7-30zm1.5 27.5c-9.2 2-17.7 7.3-23.4 14.9-5.8 7.8-8.9 17.3-9.9 26.9-1.2 11.5 0.1 23.4 5 34 4.2 8.9 11.4 16.5 20.6 20.4 14.7 6.3 33.4 4 45.2-7.3 9.9-9.1 14.5-22.6 15.2-35.7 0.9-15.6-3.5-32.3-15.1-43.3-9.8-9.4-24.4-12.7-37.6-9.9zm317.7-23.4c14-5.6 29.8-6.3 44.4-2.6 14.3 3.6 27.2 12.2 36.1 23.9 13.6 17.7 18.1 40.9 15.5 62.7-36.6 0-73.3-0.1-109.9 0 2.2 11.2 7.3 22.1 16.2 29.4 13.4 11.1 33.5 13.4 49 5.5 5.4-2.5 10.3-6 14.7-9.9 6.5 6.3 12.7 12.9 19.4 19.1-9.6 9.4-21.6 16.2-34.5 19.7-15.9 4.2-33.1 3.5-48.4-2.3-13.2-5-24.8-14-32.8-25.5-9.4-13.5-14.1-30-14-46.4-0.3-17.9 4.5-36.1 15.1-50.6 7.3-10.2 17.5-18.3 29.2-23zm-3.2 35.2c-5.4 6-8.4 13.7-10.4 21.5q39.8 0 79.6 0c-1.3-5.2-3-10.3-5.8-14.9-5.7-9.9-15.9-17-27.2-18.8-13-2.3-27.4 2-36.2 12.2z"/>
		<path id="Layer" fill-rule="evenodd" class="s0" d="m229.7 0.9c41.8-3 84.3 4.8 122.2 22.7 51.2 24 93.6 66.2 117.8 117.4 28.9 60.1 31.6 132.1 7.5 194.3-19.5 51.2-56.8 95.4-104 123.4-27.4 16.4-58.1 27.3-89.7 32-37.1 5.5-75.6 2.5-111.4-8.9-52.8-16.7-99.4-52-130.1-98.1-25.8-38.3-40.2-84.1-41.3-130.2-0.9-33 4.8-66.2 16.9-96.9 12.7-32.4 32.4-62 57.3-86.2 23.7-23.3 52.2-41.6 83.2-53.6 22.9-8.9 47.1-14.2 71.6-15.9zm-62.6 27.1q-0.3 2.8-0.5 5.6c14.9 0.1 29.9 0.9 44.6 3.7 12.6 2.3 24.8 6.2 36.7 10.8 25.2-11.4 53.3-13.7 80.7-13.9q-0.3-2.9-0.7-5.8c-51.3-19.1-109.3-19.2-160.8-0.4zm-1.5 16.4c-1.1 12.7-2.3 25.4-3.4 38.1 31-7.9 63-13.3 95.1-11.9 25.8 1.1 51.2 6 76.3 11.9-1.4-12.5-2.6-25.1-4-37.7-27.6 0.5-56.2 2.2-81.5 14.3-13.4-5.4-27.3-9.7-41.6-11.9-13.5-2.3-27.3-2.7-40.9-2.8zm-60.9 25.7c-13.3 5-24.3 14.4-33.7 24.8-9.1 10.3-16.8 22.1-20.8 35.4-1.9 6.6-3 14.1 0.2 20.5 2.3 4.6 7.5 7.1 12.6 7.1 7.3-0.2 14.2-3.1 20.5-6.7 10.6-6.2 19.7-14.7 27.5-24.2 14.2 5.5 28.1 11.7 41.5 18.9 3.1-4.7 6.2-9.5 9.4-14.2-13.5-6.8-26.9-13.7-41-18.9 4.9-8.4 8.8-17.7 9.4-27.5 0.3-5.6-1.3-11.9-6.2-15.1-5.9-3.7-13.3-2.4-19.4-0.1zm269.6-1.3c-3.2 0.9-6.2 3-7.8 6-3 5.3-2.6 11.7-1.4 17.5 2.6 11.4 8.4 21.7 15.3 31 8.7 11.5 19.3 21.8 31.9 28.9 6.4 3.5 13.5 6.4 20.9 5.8 4.8-0.2 9.4-3.2 11.3-7.7 2.8-6.3 1.6-13.5-0.2-20-3.8-12.5-11-23.7-19.4-33.6-8.5-9.9-18.6-18.7-30.3-24.4-6.3-2.8-13.4-5.3-20.3-3.5zm-16.8 52.4c-4.3 1.2-6.8 6-6.3 10.3 0.8 7.5 6.8 14.2 14.3 15.9 3.9 0.9 8.4-0.5 10.6-4.1 2.3-3.7 1.7-8.5-0.2-12.2-3.3-6.6-10.9-12-18.4-9.9zm-18.6 19.7c-1.9 0.9-3.3 2.9-3.5 5.1-0.4 5 4.4 9.8 9.5 9.2 2.9-0.5 5.3-3.2 5.1-6.2 0.3-5.4-5.9-10.3-11.1-8.1zm-137.1 3.4c-3.2 3.8-3.9 9.1-4.2 13.9-0.7 5.2 2.7 9.6 5.3 13.7 9 12.9 20 24.1 30 36.2 4.9 5.8 8.8 13.2 8 21.1-19.9-17.2-39.4-34.9-59.8-51.5-3.7-2.9-7.4-5.9-11.5-8.3-2.7 1-3.5 4.1-4 6.7-0.7 4.8-0.7 9.9 1 14.6 3.1 5.1 7.7 9.1 11.8 13.5 12.9 13 26.4 25.3 39.7 37.9 4.1 3.8 6.6 9.9 4.3 15.4-18.1-16.9-35.8-34.2-54.6-50.4-2.6-2-5-4.5-8.1-5.8-2.2 0-3.6 2.1-4.3 4-1.3 3.6-1.4 7.5-1.2 11.3 0.4 4.4 3.1 8.1 5.6 11.6 6.3 8.4 13.9 15.7 21.4 23 7.5 7.4 15.7 14.2 21.6 23.1 2.4 3.5 2.3 7.9 1.3 11.9-10.2-10.3-19.9-21.2-30.6-31.1-2.4-2.1-4.7-4.4-7.5-6-4.1 3.1-4.3 9-3.5 13.7 1.2 8.2 6.9 14.5 11.4 21.2 7.9 10.9 15.5 22.1 24.2 32.5 9.1 11.1 20.2 20.8 33.3 26.7 15.2 6.9 32.5 8.4 48.9 5.7 13-2.2 25.3-8.4 34.3-18.1 9.1-9.6 14.9-21.7 18.9-34.1 4.9-15.5 7.2-31.7 8.6-47.8 1.9-20.5 5.1-40.8 7.4-61.2-3.5-0.9-7.2-1.4-10.7-0.7-4.3 0.8-8 3.5-10.7 6.9-5.5 6.7-8.3 15-13.3 22-3.1 4.4-6.8 8.7-11.6 11.4-2.1 1.1-5 2.4-7 0.3-11.3-9.3-21.8-19.7-32.6-29.6-18.5-17.3-36.7-35-55.7-51.8-1.7-1.3-4-4.4-6.1-1.9zm235.3 30.2c-5.1 1.3-9.7 4.3-13.4 8.1-7.4 7.5-11.9 17.2-15.1 27.1-5.8 18.8-6.9 39-4 58.4 2.1 12.9 5.9 25.8 13.3 36.8 4.4 6.8 10.7 13 18.7 15.2 6.3 1.8 13.2-0.1 18.5-3.8 7-4.9 11.9-12.3 15.5-19.9 6.3-13.4 9.2-28.3 9.9-43.1 0.7-18.1-1.8-36.6-9.1-53.3-3.8-8.2-8.8-16.3-16.3-21.5-5.1-3.6-11.7-5.5-18-4zm-416.7 17c-7.8 31.8-8.9 65.1-3.1 97.3 18.5 1.2 37.1 1.4 55.6 1.8 8.9 10.1 18.2 19.9 28.3 28.9-2.8-15.2-5.2-30.5-6.5-45.9-2.7-28.6-0.7-57.4 3.8-85.8-26.1 0.3-52.2 0.7-78.1 3.7zm27.1 129.2c0.2 4.6 0.6 9.1 1.1 13.6 9.6 0.4 19.1 3.6 27.4 8.5 13 7.8 23.6 19.2 31.5 32.1 9 14.7 14.5 32.2 11.8 49.5 4.4 1.1 8.8 2.4 13.2 3.4 3-17-0.7-34.5-7.9-49.9-7.5-15.6-18.5-29.5-32.1-40.2-12.8-9.9-28.6-16.9-45-17zm336.8 19.2c-7.6 4.6-13.1 13-13.7 22-0.3 4.5 1.3 9.4 5.3 12 2 1.5 4.6 1.8 7 2.1-0.3 9.8-0.7 19.6-1.9 29.3-8.8 5.5-16.6 13.1-20.8 22.7-1.6 4-3 8.8-0.9 13 1.9 3.6 6.5 4.6 10.2 3.7 8.1-1.8 15.2-6.7 21.2-12.3 7.1-6.7 13.3-15.6 13.1-25.8 10-9.1 19-19.3 27.2-30 4.3-0.2 7.6-3.5 10.1-6.7 3.6-4.7 6.5-10.4 6.5-16.4 0.1-2.7-1.5-6-4.6-5.7-4.4 0.8-7.5 4.4-10.1 7.8-9.1-1-18.2-2-27.3-3.3 0.5-3.9 0-8.1-2.2-11.4-1.9-2.8-5.3-4.1-8.6-4.2-3.8-0.4-7.3 1.4-10.5 3.2zm-334.1 6.9c0.8 4.7 1.6 9.3 2.7 14 10.9 2.3 19.7 9.9 26.7 18.2 8.5 10.4 15 23.2 14.9 36.8 4.3 1.7 8.6 3.3 13 4.8 0.8-5.9 0.5-12-0.9-17.8-3.5-15.1-12.1-28.6-22.9-39.4-9.1-8.6-20.6-16-33.5-16.6zm10.6 29c-2 1-1.9 3.5-1.6 5.3 1.1 5.9 4.4 11.1 7.9 15.7 2.8 3.4 5.9 6.7 9.9 8.6 1.5 0.8 4 1 4.7-1 1-3.1-0.3-6.3-1.4-9.2-3.1-6.7-7.4-13-13.4-17.4-1.8-1.2-3.9-2.6-6.1-2zm136.9 28.3c-10.2-1.9-20.5-3.9-30.7-6.2 0.8 23.6 2.4 47.2 5.2 70.7 48.1 16.5 101.6 16.5 149.7 0 3.2-23.7 4.7-47.6 5.3-71.6-9.7 2.6-19.5 4.9-29.3 6.8-3.7-5.7-7.3-11.5-11.1-17.1-26 3-52.2 2.6-78.2 0-3.7 5.7-7.2 11.6-10.9 17.4zm-95.2-323.8c3.2-1 7.1-1.3 10 0.9 2.9 2.1 3.9 6 3.6 9.4-0.5 6.1-3.2 11.7-6.2 17-6 10-13.8 19-22.8 26.4-5.5 4.2-11.6 8.4-18.7 8.9-4 0.3-8.1-2.2-9.1-6.2-1.3-5.5 0.8-11 3.1-16 4.8-9.7 11.7-18.2 19.3-26 6.1-5.8 12.6-11.6 20.8-14.4zm281.8 0c4.9-1.4 10 0.9 14.3 3.3 9.7 5.9 17.6 14.3 24.5 23.2 5.2 6.8 10.1 14.2 12.1 22.7 1 4.3 0.6 10.1-3.8 12.5-4.9 2.6-10.8 0.4-15.4-2-10.4-5.8-18.8-14.6-25.9-24-5.3-7.3-10.4-15.4-11.6-24.6-0.7-4.4 1.2-9.6 5.8-11.1zm54.6 132c11.9 10.2 21.9 22.3 31 35-8.8 12.9-19.6 24.2-31.2 34.6 1.6-23.2 1.1-46.4 0.2-69.6zm-44.7 159.1c2.5-2 4.7-4.3 6.6-6.9q13.4 1.7 26.8 3.1c-0.3 1.6 0.1 3.3-0.9 4.6-8 10.6-16.7 20.7-26.5 29.6-2.9-1.2-6-1.3-9-0.7 1.3-9.9 2.3-19.8 3-29.7zm-155.7 47.2c12.1-2.1 25.1 0.3 35.2 7.5 6.4 4.6 11.6 11.5 12.4 19.6 0.7 5.5-1.4 11.1-5.1 15.2-5 5.5-12 8.8-19 10.7-13.2 3.2-27.7 2.3-40-3.9-6.1-3.2-12-8.1-14-15-1.6-6.7 0.9-13.8 5-19.2 6.1-8.1 15.6-13.1 25.5-14.9zm3.1 10.7c-8.2 1.6-16.4 7.2-18.8 15.5-1.7 5 1.4 10.1 5.1 13.3 9.9 9.3 26.5 9.7 37.2 1.5 4.1-3.1 7-8 6.7-13.3-0.4-5.2-4-9.6-8.2-12.5-6.4-4.2-14.5-6-22-4.5z"/>
	</g>
</svg>