<svg xmlns="http://www.w3.org/2000/svg" xmlns:xlink="http://www.w3.org/1999/xlink" width="500" zoomAndPan="magnify" viewBox="0 0 375 374.999991" height="500" preserveAspectRatio="xMidYMid meet" version="1.0"><defs><clipPath id="505a722532"><path d="M 2.726562 1 L 372.476562 1 L 372.476562 375 L 2.726562 375 Z M 2.726562 1 " clip-rule="nonzero"/></clipPath></defs><g clip-path="url(#505a722532)"><path fill="#5e4fff" d="M 372.136719 230.019531 C 372.136719 275 372.136719 319.976562 372.136719 364.953125 C 372.136719 373.070312 369.9375 375.292969 361.910156 375.292969 L 223.847656 375.292969 L 223.847656 336.058594 C 244.277344 342.082031 259.894531 336.402344 270.335938 319.171875 C 271.28125 317.585938 272.097656 315.9375 272.785156 314.226562 C 273.472656 312.511719 274.027344 310.757812 274.445312 308.960938 C 274.859375 307.160156 275.136719 305.34375 275.273438 303.5 C 275.40625 301.660156 275.398438 299.820312 275.25 297.980469 C 275.097656 296.140625 274.808594 294.324219 274.378906 292.53125 C 273.945312 290.738281 273.378906 288.984375 272.675781 287.28125 C 271.972656 285.574219 271.140625 283.929688 270.183594 282.351562 C 269.226562 280.773438 268.152344 279.28125 266.964844 277.871094 C 255.8125 264.464844 241.277344 260.519531 223.738281 266.128906 L 223.738281 226.949219 C 224.160156 226.878906 224.585938 226.835938 225.011719 226.824219 L 233.199219 226.824219 C 246.832031 226.824219 260.46875 226.824219 274.105469 226.898438 L 274.3125 226.898438 C 275.101562 227.027344 275.894531 227.03125 276.683594 226.90625 C 277.472656 226.78125 278.226562 226.539062 278.9375 226.175781 C 279.648438 225.808594 280.289062 225.34375 280.851562 224.777344 C 281.414062 224.207031 281.875 223.566406 282.234375 222.851562 C 282.53125 222.097656 282.710938 221.3125 282.769531 220.503906 C 282.828125 219.695312 282.761719 218.894531 282.578125 218.105469 C 282.390625 217.316406 282.089844 216.570312 281.679688 215.871094 C 281.265625 215.175781 280.757812 214.554688 280.15625 214.011719 C 279.671875 213.46875 279.21875 212.90625 278.789062 212.320312 C 278.363281 211.738281 277.960938 211.132812 277.589844 210.511719 C 277.21875 209.890625 276.878906 209.253906 276.566406 208.597656 C 276.253906 207.945312 275.972656 207.277344 275.722656 206.597656 C 275.476562 205.917969 275.257812 205.226562 275.074219 204.527344 C 274.890625 203.824219 274.742188 203.117188 274.625 202.402344 C 274.507812 201.6875 274.421875 200.96875 274.371094 200.246094 C 274.324219 199.523438 274.308594 198.800781 274.324219 198.074219 C 274.34375 197.351562 274.394531 196.628906 274.480469 195.910156 C 274.566406 195.191406 274.6875 194.476562 274.839844 193.769531 C 274.996094 193.0625 275.179688 192.363281 275.398438 191.671875 C 275.617188 190.980469 275.871094 190.300781 276.152344 189.636719 C 276.433594 188.96875 276.75 188.316406 277.09375 187.679688 C 277.4375 187.042969 277.808594 186.421875 278.214844 185.820312 C 278.617188 185.214844 279.046875 184.632812 279.503906 184.074219 C 279.960938 183.511719 280.441406 182.972656 280.949219 182.453125 C 281.453125 181.933594 281.980469 181.4375 282.53125 180.964844 C 283.082031 180.496094 283.652344 180.050781 284.246094 179.628906 C 284.835938 179.210938 285.449219 178.820312 286.074219 178.460938 C 286.703125 178.097656 287.347656 177.765625 288.007812 177.464844 C 288.664062 177.164062 289.335938 176.894531 290.023438 176.652344 C 290.707031 176.414062 291.398438 176.207031 292.105469 176.035156 C 292.808594 175.859375 293.515625 175.71875 294.234375 175.609375 C 294.949219 175.5 295.671875 175.425781 296.394531 175.386719 C 297.117188 175.34375 297.84375 175.335938 298.566406 175.363281 C 299.292969 175.390625 300.011719 175.449219 300.730469 175.542969 C 301.449219 175.636719 302.164062 175.761719 302.871094 175.921875 C 303.578125 176.082031 304.277344 176.273438 304.964844 176.5 C 305.652344 176.722656 306.332031 176.980469 306.996094 177.269531 C 307.660156 177.558594 308.3125 177.875 308.945312 178.222656 C 309.582031 178.574219 310.199219 178.949219 310.800781 179.355469 C 311.402344 179.761719 311.980469 180.195312 312.542969 180.65625 C 313.148438 181.148438 313.726562 181.667969 314.28125 182.21875 C 314.835938 182.769531 315.359375 183.347656 315.855469 183.949219 C 316.347656 184.554688 316.8125 185.179688 317.246094 185.832031 C 317.675781 186.480469 318.074219 187.152344 318.4375 187.839844 C 318.800781 188.53125 319.128906 189.238281 319.421875 189.960938 C 319.714844 190.6875 319.96875 191.421875 320.1875 192.171875 C 320.40625 192.921875 320.585938 193.679688 320.726562 194.449219 C 320.867188 195.214844 320.96875 195.988281 321.03125 196.765625 C 321.097656 197.546875 321.121094 198.324219 321.105469 199.105469 C 321.089844 199.886719 321.035156 200.664062 320.9375 201.4375 C 320.84375 202.210938 320.710938 202.980469 320.539062 203.742188 C 320.367188 204.503906 320.15625 205.253906 319.910156 205.996094 C 319.660156 206.734375 319.375 207.460938 319.054688 208.171875 C 318.734375 208.882812 318.375 209.578125 317.984375 210.25 C 317.59375 210.925781 317.167969 211.582031 316.710938 212.214844 C 316.253906 212.84375 315.765625 213.453125 315.246094 214.035156 C 314.601562 214.542969 314.054688 215.144531 313.613281 215.835938 C 313.167969 216.527344 312.851562 217.273438 312.660156 218.074219 C 312.46875 218.875 312.410156 219.683594 312.492188 220.5 C 312.574219 221.316406 312.785156 222.101562 313.128906 222.847656 C 313.535156 223.582031 314.039062 224.238281 314.648438 224.8125 C 315.257812 225.390625 315.941406 225.859375 316.699219 226.222656 C 317.457031 226.582031 318.25 226.820312 319.082031 226.9375 C 319.910156 227.050781 320.738281 227.035156 321.566406 226.886719 C 334.25 226.785156 346.925781 226.792969 359.816406 226.808594 L 371.976562 226.808594 L 371.976562 227.117188 C 372.085938 228.125 372.136719 229.074219 372.136719 230.019531 Z M 246.996094 322.425781 C 247.765625 322.089844 248.515625 321.714844 249.246094 321.296875 C 249.972656 320.882812 250.679688 320.425781 251.359375 319.933594 C 252.039062 319.441406 252.6875 318.914062 253.3125 318.351562 C 253.933594 317.789062 254.523438 317.191406 255.082031 316.566406 C 255.640625 315.9375 256.164062 315.285156 256.652344 314.601562 C 257.140625 313.917969 257.589844 313.210938 258 312.476562 C 258.410156 311.746094 258.78125 310.992188 259.113281 310.222656 C 259.441406 309.449219 259.730469 308.664062 259.976562 307.859375 C 260.21875 307.054688 260.421875 306.242188 260.578125 305.417969 C 260.734375 304.59375 260.847656 303.761719 260.914062 302.925781 C 260.980469 302.089844 261.003906 301.25 260.980469 300.410156 C 260.957031 299.574219 260.890625 298.738281 260.777344 297.90625 C 260.664062 297.074219 260.503906 296.25 260.304688 295.433594 C 260.101562 294.621094 259.855469 293.820312 259.566406 293.03125 C 259.277344 292.242188 258.949219 291.472656 258.574219 290.71875 C 258.203125 289.96875 257.792969 289.238281 257.34375 288.527344 C 256.890625 287.820312 256.402344 287.136719 255.878906 286.484375 C 255.355469 285.828125 254.796875 285.203125 254.203125 284.605469 C 253.613281 284.011719 252.988281 283.449219 252.335938 282.921875 C 251.683594 282.394531 251.003906 281.902344 250.300781 281.449219 C 249.59375 280.992188 248.867188 280.578125 248.117188 280.203125 C 247.363281 279.824219 246.597656 279.492188 245.808594 279.199219 C 245.023438 278.90625 244.222656 278.65625 243.410156 278.449219 C 242.59375 278.242188 241.773438 278.078125 240.941406 277.960938 C 240.109375 277.84375 239.273438 277.769531 238.4375 277.742188 C 237.597656 277.714844 236.757812 277.734375 235.921875 277.796875 C 235.085938 277.859375 234.253906 277.96875 233.429688 278.121094 C 232.601562 278.273438 231.789062 278.46875 230.984375 278.710938 C 230.179688 278.949219 229.390625 279.234375 228.617188 279.558594 C 227.84375 279.886719 227.089844 280.25 226.355469 280.660156 C 225.621094 281.066406 224.910156 281.511719 224.222656 281.996094 C 223.539062 282.480469 222.878906 283 222.25 283.554688 C 220.988281 284.644531 217.132812 287.964844 213.289062 285.347656 C 212.164062 284.503906 211.261719 283.46875 210.582031 282.234375 C 209.90625 281 209.511719 279.683594 209.402344 278.28125 C 209.269531 266.316406 209.347656 254.125 209.402344 242.355469 L 209.476562 229.15625 C 209.460938 228.484375 209.398438 227.816406 209.292969 227.152344 L 170.359375 227.152344 C 174.800781 248.695312 170.394531 262.589844 156.179688 272.070312 C 154.628906 273.113281 153.003906 274.039062 151.3125 274.839844 C 149.621094 275.640625 147.878906 276.308594 146.085938 276.847656 C 144.292969 277.386719 142.46875 277.785156 140.613281 278.050781 C 138.761719 278.3125 136.898438 278.4375 135.027344 278.417969 C 133.152344 278.402344 131.292969 278.246094 129.445312 277.949219 C 127.597656 277.652344 125.78125 277.214844 123.996094 276.644531 C 122.214844 276.074219 120.484375 275.375 118.808594 274.542969 C 117.128906 273.710938 115.523438 272.757812 113.988281 271.683594 C 100.128906 262.0625 95.785156 247.90625 100.402344 227.210938 L 61.316406 227.210938 L 61.316406 364.882812 C 61.316406 373.363281 63.273438 375.285156 71.765625 375.285156 L 209.402344 375.285156 C 209.492188 374.945312 209.550781 374.597656 209.570312 374.246094 L 209.570312 365.257812 C 209.570312 351.882812 209.601562 338.507812 209.503906 325.132812 C 209.355469 324.308594 209.332031 323.480469 209.4375 322.648438 C 209.542969 321.820312 209.769531 321.023438 210.113281 320.261719 C 210.460938 319.5 210.914062 318.804688 211.46875 318.179688 C 212.027344 317.554688 212.664062 317.027344 213.382812 316.597656 C 214.152344 316.238281 214.960938 316.011719 215.808594 315.921875 C 216.65625 315.832031 217.492188 315.882812 218.320312 316.074219 C 219.152344 316.265625 219.925781 316.585938 220.648438 317.035156 C 221.371094 317.488281 222 318.042969 222.535156 318.703125 C 223.339844 319.449219 224.195312 320.132812 225.101562 320.753906 C 226.007812 321.371094 226.953125 321.917969 227.941406 322.398438 C 228.929688 322.875 229.945312 323.273438 230.996094 323.601562 C 232.042969 323.925781 233.109375 324.167969 234.191406 324.335938 C 235.277344 324.5 236.367188 324.582031 237.464844 324.585938 C 238.5625 324.585938 239.652344 324.507812 240.738281 324.34375 C 241.824219 324.183594 242.890625 323.941406 243.941406 323.621094 C 244.988281 323.300781 246.007812 322.902344 246.996094 322.425781 Z M 63.007812 151.070312 C 63.1875 149.308594 63.121094 147.558594 62.8125 145.8125 C 62.597656 144.398438 62.484375 142.976562 62.472656 141.546875 L 62.472656 141.089844 C 62.503906 138.535156 62.539062 135.371094 64.28125 133.917969 C 65.21875 133.359375 66.226562 132.976562 67.296875 132.769531 C 68.371094 132.558594 69.445312 132.539062 70.523438 132.707031 C 71.089844 132.707031 71.652344 132.707031 72.183594 132.707031 C 73.050781 132.769531 73.859375 133.027344 74.605469 133.472656 C 74.851562 133.605469 75.101562 133.726562 75.355469 133.835938 L 107.992188 146.769531 L 117.988281 121.558594 C 102.347656 119.226562 92.902344 110.820312 89.902344 96.554688 C 89.566406 95.167969 89.332031 93.761719 89.203125 92.339844 C 89.074219 90.917969 89.050781 89.492188 89.132812 88.070312 C 89.21875 86.644531 89.40625 85.230469 89.703125 83.835938 C 89.996094 82.4375 90.394531 81.070312 90.890625 79.734375 C 91.390625 78.394531 91.988281 77.101562 92.679688 75.851562 C 93.371094 74.605469 94.152344 73.414062 95.023438 72.28125 C 95.890625 71.148438 96.839844 70.085938 97.871094 69.097656 C 98.898438 68.105469 99.996094 67.199219 101.160156 66.371094 C 113.390625 57.15625 126.414062 57.242188 139.886719 66.648438 L 149.839844 41.53125 C 149.378906 41.300781 149.023438 41.128906 148.660156 40.980469 L 134.617188 35.402344 C 106.480469 24.226562 78.347656 13.0625 50.21875 1.910156 C 45.792969 0.15625 44.179688 0.898438 42.339844 5.550781 C 30.371094 35.585938 18.425781 65.632812 6.5 95.699219 L 4.265625 101.234375 C 3.84375 102.273438 3.460938 103.363281 3.054688 104.484375 L 2.855469 105.003906 L 35.441406 117.941406 C 35.867188 118.113281 36.304688 118.273438 36.742188 118.460938 C 39.59375 119.5 43.144531 120.800781 43.726562 125.195312 C 44.308594 129.589844 41.191406 131.53125 38.675781 133.039062 C 38.1875 133.335938 37.699219 133.625 37.238281 133.9375 C 36.476562 134.457031 35.765625 135.03125 35.101562 135.667969 C 34.433594 136.300781 33.828125 136.984375 33.273438 137.71875 C 32.722656 138.453125 32.230469 139.230469 31.804688 140.042969 C 31.382812 140.859375 31.023438 141.703125 30.738281 142.574219 C 30.453125 143.449219 30.238281 144.339844 30.097656 145.246094 C 29.957031 146.15625 29.890625 147.070312 29.902344 147.988281 C 29.910156 148.90625 29.996094 149.820312 30.152344 150.722656 C 30.3125 151.628906 30.546875 152.515625 30.851562 153.382812 C 31.15625 154.25 31.527344 155.085938 31.96875 155.890625 C 32.414062 156.695312 32.917969 157.460938 33.484375 158.183594 C 34.050781 158.90625 34.675781 159.578125 35.351562 160.199219 C 36.03125 160.820312 36.753906 161.378906 37.523438 161.882812 C 38.296875 162.382812 39.101562 162.820312 39.941406 163.1875 C 40.785156 163.558594 41.648438 163.855469 42.539062 164.082031 C 43.429688 164.308594 44.335938 164.464844 45.25 164.542969 C 46.164062 164.621094 47.082031 164.625 47.996094 164.550781 C 48.90625 164.496094 49.800781 164.363281 50.6875 164.15625 C 51.570312 163.949219 52.433594 163.671875 53.269531 163.320312 C 54.109375 162.96875 54.914062 162.546875 55.679688 162.0625 C 56.449219 161.574219 57.171875 161.03125 57.847656 160.421875 C 58.523438 159.816406 59.144531 159.15625 59.710938 158.445312 C 60.277344 157.730469 60.777344 156.976562 61.21875 156.183594 C 61.65625 155.386719 62.027344 154.558594 62.328125 153.703125 C 62.628906 152.84375 62.855469 151.96875 63.007812 151.070312 Z M 362.160156 64.546875 C 317.035156 64.546875 271.914062 64.546875 226.792969 64.546875 C 225.84375 64.546875 224.898438 64.617188 223.898438 64.695312 L 223.597656 64.695312 L 223.597656 76.746094 C 223.597656 89.75 223.5625 102.066406 223.703125 114.628906 C 223.820312 115.417969 223.824219 116.207031 223.710938 117 C 223.601562 117.789062 223.378906 118.546875 223.046875 119.273438 C 222.714844 120 222.285156 120.664062 221.757812 121.265625 C 221.234375 121.867188 220.632812 122.382812 219.957031 122.808594 C 219.230469 123.203125 218.460938 123.46875 217.644531 123.605469 C 216.828125 123.738281 216.011719 123.734375 215.195312 123.59375 C 214.382812 123.453125 213.613281 123.179688 212.890625 122.777344 C 212.167969 122.375 211.53125 121.867188 210.980469 121.25 C 210.433594 120.746094 209.863281 120.273438 209.273438 119.828125 C 208.679688 119.382812 208.070312 118.964844 207.4375 118.578125 C 206.804688 118.191406 206.15625 117.835938 205.488281 117.511719 C 204.824219 117.1875 204.144531 116.894531 203.449219 116.636719 C 202.753906 116.378906 202.046875 116.15625 201.332031 115.964844 C 200.617188 115.773438 199.894531 115.617188 199.160156 115.496094 C 198.429688 115.378906 197.695312 115.292969 196.957031 115.242188 C 196.214844 115.195312 195.476562 115.179688 194.734375 115.203125 C 193.996094 115.222656 193.257812 115.28125 192.523438 115.375 C 191.785156 115.46875 191.058594 115.597656 190.335938 115.757812 C 189.613281 115.921875 188.898438 116.121094 188.195312 116.355469 C 187.492188 116.585938 186.800781 116.851562 186.125 117.152344 C 185.445312 117.449219 184.785156 117.78125 184.136719 118.144531 C 183.492188 118.507812 182.863281 118.902344 182.257812 119.324219 C 181.648438 119.75 181.0625 120.199219 180.5 120.679688 C 179.933594 121.160156 179.394531 121.667969 178.878906 122.199219 C 178.359375 122.730469 177.867188 123.28125 177.402344 123.859375 C 176.933594 124.433594 176.496094 125.03125 176.085938 125.648438 C 175.675781 126.265625 175.296875 126.902344 174.949219 127.558594 C 174.597656 128.210938 174.28125 128.878906 173.996094 129.5625 C 173.710938 130.246094 173.457031 130.941406 173.234375 131.652344 C 173.015625 132.359375 172.828125 133.074219 172.675781 133.800781 C 172.523438 134.527344 172.40625 135.257812 172.324219 135.992188 C 172.242188 136.730469 172.191406 137.46875 172.179688 138.210938 C 172.164062 138.949219 172.1875 139.691406 172.246094 140.429688 C 172.300781 141.167969 172.394531 141.902344 172.519531 142.632812 C 172.648438 143.363281 172.808594 144.085938 173.003906 144.800781 C 173.199219 145.515625 173.425781 146.222656 173.6875 146.914062 C 173.949219 147.609375 174.242188 148.289062 174.570312 148.953125 C 174.894531 149.621094 175.25 150.269531 175.640625 150.898438 C 176.027344 151.53125 176.445312 152.144531 176.890625 152.738281 C 177.335938 153.328125 177.808594 153.898438 178.304688 154.445312 C 178.804688 154.996094 179.324219 155.523438 179.871094 156.023438 C 180.417969 156.523438 180.988281 156.996094 181.582031 157.441406 C 182.175781 157.886719 182.789062 158.304688 183.421875 158.691406 C 184.054688 159.074219 184.703125 159.429688 185.371094 159.753906 C 186.035156 160.078125 186.71875 160.371094 187.414062 160.628906 C 188.109375 160.886719 188.8125 161.109375 189.53125 161.300781 C 190.246094 161.488281 190.972656 161.644531 191.703125 161.765625 C 192.433594 161.886719 193.171875 161.96875 193.910156 162.019531 C 194.648438 162.070312 195.390625 162.082031 196.132812 162.0625 C 196.871094 162.039062 197.609375 161.980469 198.347656 161.886719 C 199.082031 161.796875 199.8125 161.667969 200.535156 161.503906 C 201.257812 161.339844 201.972656 161.144531 202.675781 160.910156 C 203.378906 160.679688 204.070312 160.414062 204.75 160.113281 C 205.425781 159.816406 206.089844 159.484375 206.738281 159.121094 C 207.382812 158.761719 208.011719 158.367188 208.621094 157.945312 C 209.230469 157.519531 209.816406 157.070312 210.382812 156.589844 C 210.640625 156.246094 210.925781 155.929688 211.238281 155.636719 C 211.550781 155.34375 211.882812 155.078125 212.242188 154.84375 C 212.601562 154.609375 212.976562 154.40625 213.371094 154.234375 C 213.761719 154.0625 214.167969 153.929688 214.585938 153.828125 C 215 153.726562 215.421875 153.664062 215.851562 153.636719 C 216.277344 153.609375 216.707031 153.621094 217.132812 153.667969 C 217.558594 153.714844 217.976562 153.796875 218.386719 153.914062 C 218.800781 154.035156 219.199219 154.1875 219.582031 154.375 C 219.96875 154.5625 220.335938 154.78125 220.683594 155.035156 C 221.027344 155.285156 221.351562 155.566406 221.652344 155.871094 C 221.949219 156.179688 222.21875 156.511719 222.460938 156.863281 C 222.703125 157.21875 222.914062 157.589844 223.089844 157.980469 C 223.265625 158.371094 223.410156 158.773438 223.515625 159.1875 C 223.625 159.601562 223.695312 160.023438 223.730469 160.449219 C 223.765625 160.878906 223.765625 161.304688 223.726562 161.730469 C 223.6875 162.160156 223.609375 162.578125 223.5 162.992188 C 223.5 174.976562 223.5 186.960938 223.5 198.941406 L 223.5 212.59375 L 262.859375 212.59375 C 257.195312 195.089844 261.148438 180.550781 274.621094 169.367188 C 276.050781 168.171875 277.5625 167.09375 279.160156 166.132812 C 280.753906 165.171875 282.417969 164.339844 284.144531 163.640625 C 285.871094 162.9375 287.640625 162.375 289.457031 161.953125 C 291.269531 161.527344 293.105469 161.246094 294.964844 161.109375 C 296.824219 160.96875 298.683594 160.976562 300.539062 161.128906 C 302.398438 161.28125 304.230469 161.578125 306.042969 162.015625 C 307.855469 162.453125 309.621094 163.03125 311.339844 163.742188 C 313.0625 164.457031 314.71875 165.300781 316.308594 166.273438 C 333.273438 176.738281 338.828125 192.28125 332.832031 212.5625 L 372.179688 212.5625 L 372.179688 175.910156 C 372.179688 142.175781 372.179688 108.4375 372.179688 74.691406 C 372.136719 66.730469 370.003906 64.546875 362.160156 64.546875 Z M 362.160156 64.546875 " fill-opacity="1" fill-rule="nonzero"/></g></svg>