<svg xmlns="http://www.w3.org/2000/svg" xmlns:xlink="http://www.w3.org/1999/xlink" width="500" zoomAndPan="magnify" viewBox="0 0 375 374.999991" height="500" preserveAspectRatio="xMidYMid meet" version="1.0"><defs><clipPath id="e591da47e8"><path d="M 0 3.066406 L 375 3.066406 L 375 372 L 0 372 Z M 0 3.066406 " clip-rule="nonzero"/></clipPath></defs><g clip-path="url(#e591da47e8)"><path fill="#5e4fff" d="M 58.050781 60.519531 L 58.667969 60.519531 C 65.105469 60.34375 71.664062 60.152344 81.898438 60.234375 C 82.75 60.285156 83.582031 60.1875 84.398438 59.9375 C 85.214844 59.6875 85.957031 59.304688 86.632812 58.785156 C 87.789062 57.1875 88.324219 55.40625 88.242188 53.4375 C 88.191406 52.933594 88.050781 52.453125 87.824219 52 C 87.597656 51.546875 87.296875 51.148438 86.921875 50.808594 C 86.546875 50.464844 86.125 50.199219 85.652344 50.015625 C 85.179688 49.828125 84.691406 49.730469 84.183594 49.726562 C 82.882812 49.574219 81.582031 49.503906 80.273438 49.507812 L 75.542969 49.445312 C 56.820312 49.273438 38.136719 49.101562 19.375 48.984375 C 18.460938 49.074219 17.554688 49.03125 16.652344 48.851562 C 15.753906 48.675781 14.898438 48.371094 14.085938 47.9375 C 13.277344 47.507812 12.546875 46.964844 11.898438 46.316406 C 11.246094 45.667969 10.707031 44.941406 10.273438 44.132812 C 9.914062 43.476562 9.644531 42.785156 9.464844 42.058594 C 9.285156 41.335938 9.203125 40.597656 9.210938 39.851562 C 9.222656 39.105469 9.328125 38.371094 9.53125 37.652344 C 9.730469 36.933594 10.019531 36.25 10.394531 35.605469 C 10.84375 34.898438 11.375 34.257812 11.988281 33.691406 C 12.605469 33.121094 13.28125 32.640625 14.019531 32.25 C 14.757812 31.855469 15.535156 31.566406 16.351562 31.375 C 17.167969 31.1875 17.992188 31.105469 18.832031 31.128906 C 28.921875 31.191406 38.996094 31.316406 49.078125 31.441406 C 60.433594 31.5625 71.757812 31.6875 83.074219 31.6875 C 83.449219 31.722656 83.820312 31.71875 84.191406 31.671875 C 84.5625 31.628906 84.925781 31.546875 85.277344 31.425781 C 85.632812 31.304688 85.96875 31.148438 86.289062 30.957031 C 86.609375 30.765625 86.90625 30.542969 87.179688 30.285156 C 87.453125 30.03125 87.699219 29.75 87.910156 29.445312 C 88.125 29.140625 88.304688 28.8125 88.453125 28.46875 C 88.597656 28.125 88.703125 27.769531 88.773438 27.402344 C 88.84375 27.035156 88.875 26.664062 88.867188 26.292969 C 88.855469 25.925781 88.804688 25.566406 88.71875 25.214844 C 88.632812 24.859375 88.511719 24.515625 88.359375 24.1875 C 88.207031 23.855469 88.019531 23.542969 87.804688 23.25 C 87.585938 22.957031 87.34375 22.6875 87.074219 22.445312 C 86.804688 22.199219 86.511719 21.984375 86.199219 21.796875 C 85.886719 21.609375 85.558594 21.457031 85.214844 21.335938 C 84.871094 21.214844 84.515625 21.128906 84.15625 21.078125 C 83.796875 21.03125 83.433594 21.015625 83.070312 21.039062 L 81.496094 21.039062 C 66.113281 20.851562 50.828125 20.726562 35.527344 20.605469 L 34.035156 20.605469 C 27.433594 20.472656 23.515625 17.164062 23.515625 11.753906 C 23.492188 10.632812 23.691406 9.550781 24.109375 8.511719 C 24.527344 7.46875 25.132812 6.550781 25.929688 5.757812 C 27.089844 4.773438 28.394531 4.046875 29.847656 3.585938 C 31.296875 3.125 32.78125 2.957031 34.300781 3.09375 L 67.394531 3.417969 C 88.964844 3.632812 110.535156 3.839844 132.097656 4.039062 C 134.628906 3.972656 137.152344 4.054688 139.671875 4.285156 C 142.195312 4.511719 144.691406 4.890625 147.167969 5.414062 C 149.644531 5.933594 152.082031 6.601562 154.480469 7.410156 C 156.878906 8.21875 159.222656 9.167969 161.507812 10.25 C 163.796875 11.332031 166.011719 12.546875 168.15625 13.890625 C 170.300781 15.234375 172.359375 16.699219 174.332031 18.285156 C 176.304688 19.871094 178.179688 21.566406 179.953125 23.371094 C 181.726562 25.179688 183.386719 27.082031 184.9375 29.082031 C 185.296875 29.585938 185.710938 30.039062 186.1875 30.4375 C 186.660156 30.832031 187.175781 31.164062 187.734375 31.429688 C 188.292969 31.695312 188.878906 31.886719 189.484375 32 C 190.09375 32.113281 190.707031 32.152344 191.324219 32.109375 C 196.441406 32.050781 238.136719 32.15625 257.539062 32.226562 C 257.394531 41.371094 257.253906 50.523438 257.121094 59.675781 C 255.257812 59.191406 253.363281 58.910156 251.4375 58.839844 C 249.636719 58.800781 247.859375 58.953125 246.09375 59.296875 C 244.328125 59.640625 242.621094 60.167969 240.96875 60.878906 C 239.320312 61.585938 237.761719 62.464844 236.300781 63.511719 C 234.835938 64.554688 233.503906 65.746094 232.296875 67.078125 C 231.4375 67.867188 230.664062 68.734375 229.976562 69.675781 C 228.535156 72.148438 227.546875 74.789062 227.003906 77.597656 C 226.460938 80.40625 226.398438 83.226562 226.8125 86.054688 C 226.882812 91.058594 227.296875 96.035156 228.050781 100.980469 C 211.398438 100.980469 197.4375 100.980469 195.15625 100.859375 C 194.460938 100.800781 193.769531 100.832031 193.082031 100.953125 C 192.394531 101.074219 191.730469 101.277344 191.097656 101.566406 C 190.460938 101.859375 189.875 102.222656 189.332031 102.664062 C 188.792969 103.105469 188.316406 103.605469 187.902344 104.167969 C 185.648438 107.21875 183.179688 110.078125 180.492188 112.753906 C 177.804688 115.429688 174.933594 117.886719 171.871094 120.121094 C 168.8125 122.359375 165.601562 124.355469 162.238281 126.105469 C 158.875 127.855469 155.402344 129.34375 151.8125 130.566406 C 147.875 131.863281 143.84375 132.71875 139.722656 133.136719 C 129.609375 134.007812 119.523438 134.875 109.429688 135.609375 L 87.011719 137.273438 C 86.75 137.273438 86.484375 137.273438 86.21875 137.273438 C 83.957031 137.292969 81.835938 136.746094 79.863281 135.640625 C 79.070312 135.1875 78.371094 134.621094 77.769531 133.9375 C 77.164062 133.25 76.6875 132.484375 76.339844 131.640625 C 75.992188 130.796875 75.789062 129.921875 75.734375 129.007812 C 75.679688 128.097656 75.773438 127.203125 76.015625 126.320312 C 76.152344 125.4375 76.421875 124.59375 76.820312 123.792969 C 77.21875 122.992188 77.730469 122.269531 78.351562 121.628906 C 78.976562 120.984375 79.679688 120.453125 80.46875 120.027344 C 81.257812 119.605469 82.089844 119.308594 82.96875 119.144531 C 85.0625 118.65625 87.152344 118.320312 89.25 117.992188 L 91.769531 117.585938 C 92.65625 117.503906 93.492188 117.25 94.277344 116.824219 C 95.0625 116.402344 95.730469 115.84375 96.289062 115.144531 C 97.050781 114.125 97.382812 112.976562 97.277344 111.707031 C 96.980469 107.375 93.074219 106.753906 90.773438 106.753906 L 90.023438 106.753906 C 66.566406 106.507812 43.167969 106.261719 19.636719 106.082031 L 18.84375 106.082031 C 17.964844 106.167969 17.089844 106.132812 16.222656 105.976562 C 15.355469 105.816406 14.523438 105.542969 13.734375 105.148438 C 12.941406 104.757812 12.222656 104.261719 11.570312 103.667969 C 10.917969 103.070312 10.363281 102.398438 9.902344 101.644531 C 9.519531 100.988281 9.234375 100.292969 9.035156 99.5625 C 8.839844 98.832031 8.742188 98.085938 8.742188 97.328125 C 8.742188 96.570312 8.839844 95.824219 9.035156 95.09375 C 9.234375 94.359375 9.519531 93.667969 9.902344 93.011719 C 10.324219 92.320312 10.832031 91.695312 11.417969 91.140625 C 12.007812 90.582031 12.65625 90.109375 13.371094 89.726562 C 14.082031 89.339844 14.832031 89.050781 15.621094 88.863281 C 16.410156 88.675781 17.210938 88.59375 18.019531 88.617188 C 26.25 88.617188 34.472656 88.71875 42.699219 88.816406 L 82.238281 89.175781 C 82.875 89.253906 83.503906 89.222656 84.125 89.082031 C 84.75 88.9375 85.328125 88.695312 85.867188 88.351562 C 86.40625 88.007812 86.867188 87.582031 87.257812 87.074219 C 87.644531 86.566406 87.9375 86.007812 88.132812 85.398438 C 88.316406 84.867188 88.40625 84.320312 88.40625 83.757812 C 88.402344 83.195312 88.304688 82.648438 88.113281 82.117188 C 87.921875 81.585938 87.648438 81.105469 87.292969 80.667969 C 86.933594 80.230469 86.515625 79.867188 86.035156 79.578125 C 84.734375 78.847656 83.339844 78.5 81.851562 78.53125 C 68.738281 78.363281 59.441406 78.53125 50.445312 78.660156 C 41.050781 78.808594 31.9375 78.941406 19.234375 78.839844 C 18.261719 78.839844 17.210938 78.839844 16.183594 78.785156 C 15.609375 78.757812 15.042969 78.671875 14.488281 78.535156 C 13.929688 78.398438 13.394531 78.210938 12.871094 77.972656 C 12.351562 77.730469 11.859375 77.441406 11.394531 77.109375 C 10.929688 76.773438 10.5 76.394531 10.105469 75.980469 C 9.714844 75.5625 9.363281 75.109375 9.058594 74.625 C 8.75 74.140625 8.492188 73.632812 8.285156 73.097656 C 8.078125 72.5625 7.921875 72.015625 7.816406 71.449219 C 7.714844 70.886719 7.667969 70.316406 7.671875 69.746094 C 7.648438 69.164062 7.679688 68.589844 7.773438 68.015625 C 7.863281 67.445312 8.007812 66.886719 8.210938 66.34375 C 8.414062 65.800781 8.667969 65.285156 8.972656 64.792969 C 9.28125 64.300781 9.632812 63.84375 10.03125 63.421875 C 10.429688 63.003906 10.863281 62.625 11.335938 62.289062 C 11.8125 61.957031 12.3125 61.671875 12.84375 61.441406 C 13.375 61.207031 13.921875 61.03125 14.488281 60.90625 C 15.054688 60.785156 15.628906 60.71875 16.207031 60.710938 C 21.027344 60.609375 25.8125 60.671875 30.59375 60.710938 L 34.269531 60.753906 C 44.796875 60.875 51.535156 60.695312 58.050781 60.519531 Z M 292.894531 314.484375 C 302.796875 314.570312 309.277344 314.378906 315.519531 314.210938 L 316.34375 314.210938 C 322.957031 314.03125 329.800781 313.847656 340.550781 313.945312 L 344.480469 313.988281 C 349.183594 314.050781 353.878906 314.113281 358.609375 313.988281 C 359.1875 313.984375 359.761719 313.921875 360.328125 313.796875 C 360.894531 313.675781 361.445312 313.5 361.976562 313.269531 C 362.507812 313.035156 363.011719 312.753906 363.488281 312.417969 C 363.960938 312.085938 364.398438 311.707031 364.796875 311.285156 C 365.195312 310.863281 365.546875 310.40625 365.851562 309.914062 C 366.160156 309.421875 366.414062 308.902344 366.613281 308.359375 C 366.816406 307.816406 366.960938 307.257812 367.050781 306.683594 C 367.136719 306.109375 367.167969 305.535156 367.140625 304.953125 C 367.148438 304.382812 367.101562 303.816406 366.996094 303.253906 C 366.894531 302.691406 366.742188 302.144531 366.535156 301.613281 C 366.328125 301.078125 366.070312 300.570312 365.769531 300.085938 C 365.464844 299.605469 365.117188 299.152344 364.726562 298.738281 C 364.335938 298.320312 363.910156 297.941406 363.445312 297.605469 C 362.984375 297.273438 362.496094 296.984375 361.976562 296.742188 C 361.457031 296.5 360.921875 296.308594 360.367188 296.167969 C 359.816406 296.03125 359.253906 295.945312 358.683594 295.914062 C 357.660156 295.859375 356.660156 295.851562 355.632812 295.859375 C 342.9375 295.742188 333.832031 295.859375 324.925781 296.023438 C 316.3125 296.160156 306.546875 296.320312 293.011719 296.167969 C 291.523438 296.191406 290.128906 295.84375 288.824219 295.121094 C 288.34375 294.828125 287.921875 294.464844 287.566406 294.03125 C 287.210938 293.59375 286.9375 293.109375 286.746094 292.582031 C 286.554688 292.050781 286.460938 291.503906 286.457031 290.941406 C 286.457031 290.378906 286.546875 289.832031 286.734375 289.296875 C 286.8125 288.988281 286.921875 288.6875 287.058594 288.394531 C 287.195312 288.101562 287.355469 287.828125 287.546875 287.566406 C 287.734375 287.304688 287.945312 287.066406 288.179688 286.84375 C 288.414062 286.625 288.664062 286.425781 288.9375 286.253906 C 289.207031 286.078125 289.492188 285.933594 289.789062 285.8125 C 290.089844 285.691406 290.394531 285.601562 290.710938 285.539062 C 291.027344 285.476562 291.34375 285.445312 291.667969 285.441406 C 291.988281 285.4375 292.308594 285.464844 292.625 285.523438 L 331.960938 285.882812 C 340.253906 285.980469 348.546875 286.082031 356.835938 286.082031 C 357.65625 286.101562 358.460938 286.019531 359.253906 285.828125 C 360.046875 285.636719 360.804688 285.347656 361.523438 284.957031 C 362.238281 284.566406 362.894531 284.089844 363.484375 283.527344 C 364.078125 282.964844 364.585938 282.335938 365.011719 281.636719 C 365.386719 280.984375 365.667969 280.292969 365.859375 279.5625 C 366.050781 278.832031 366.140625 278.089844 366.136719 277.335938 C 366.128906 276.582031 366.027344 275.84375 365.824219 275.117188 C 365.621094 274.390625 365.328125 273.703125 364.945312 273.054688 C 364.480469 272.300781 363.921875 271.625 363.269531 271.03125 C 362.613281 270.433594 361.890625 269.941406 361.097656 269.546875 C 360.300781 269.15625 359.46875 268.882812 358.597656 268.726562 C 357.726562 268.570312 356.851562 268.539062 355.972656 268.628906 L 355.199219 268.628906 C 331.914062 268.449219 308.789062 268.210938 285.5625 267.96875 L 284.066406 267.96875 C 281.761719 267.96875 277.878906 267.3125 277.5625 263.019531 C 277.449219 261.746094 277.777344 260.597656 278.546875 259.578125 C 279.101562 258.882812 279.773438 258.320312 280.554688 257.898438 C 281.339844 257.476562 282.175781 257.222656 283.0625 257.140625 L 285.539062 256.742188 C 287.65625 256.410156 289.769531 256.074219 291.867188 255.578125 C 292.75 255.417969 293.585938 255.125 294.378906 254.703125 C 295.167969 254.28125 295.875 253.75 296.5 253.105469 C 297.121094 252.460938 297.632812 251.738281 298.03125 250.933594 C 298.429688 250.132812 298.695312 249.289062 298.832031 248.402344 C 299.074219 247.519531 299.167969 246.621094 299.113281 245.710938 C 299.058594 244.796875 298.855469 243.917969 298.507812 243.074219 C 298.15625 242.226562 297.679688 241.460938 297.074219 240.777344 C 296.46875 240.089844 295.769531 239.523438 294.976562 239.070312 C 292.753906 237.820312 290.375 237.289062 287.835938 237.472656 L 265.421875 239.144531 C 255.328125 239.878906 245.234375 240.746094 235.097656 241.621094 C 230.976562 242.042969 226.945312 242.898438 223.007812 244.1875 C 219.421875 245.410156 215.949219 246.890625 212.589844 248.640625 C 209.230469 250.386719 206.023438 252.378906 202.964844 254.613281 C 199.910156 256.84375 197.035156 259.296875 194.351562 261.964844 C 191.664062 264.636719 189.195312 267.492188 186.941406 270.535156 C 186.535156 271.105469 186.058594 271.609375 185.519531 272.054688 C 184.980469 272.5 184.390625 272.867188 183.753906 273.160156 C 183.117188 273.449219 182.453125 273.652344 181.765625 273.769531 C 181.074219 273.890625 180.382812 273.917969 179.683594 273.851562 C 177.40625 273.734375 163.441406 273.730469 146.792969 273.730469 C 147.542969 278.675781 147.957031 283.652344 148.03125 288.65625 C 148.445312 291.484375 148.382812 294.308594 147.839844 297.117188 C 147.296875 299.925781 146.308594 302.566406 144.871094 305.042969 C 144.179688 305.980469 143.40625 306.847656 142.550781 307.640625 C 141.339844 308.96875 140.003906 310.15625 138.539062 311.199219 C 137.078125 312.246094 135.519531 313.121094 133.867188 313.832031 C 132.21875 314.539062 130.507812 315.066406 128.746094 315.410156 C 126.980469 315.753906 125.199219 315.90625 123.402344 315.871094 C 121.480469 315.804688 119.585938 315.523438 117.722656 315.035156 C 117.785156 324.160156 117.84375 333.289062 117.902344 342.421875 C 154.351562 342.523438 180.816406 342.621094 183.664062 342.597656 C 184.746094 342.570312 185.789062 342.765625 186.789062 343.183594 C 188.023438 343.753906 189.054688 344.582031 189.882812 345.660156 C 191.433594 347.660156 193.097656 349.558594 194.871094 351.363281 C 196.644531 353.167969 198.519531 354.859375 200.492188 356.441406 C 202.464844 358.027344 204.523438 359.488281 206.667969 360.832031 C 208.8125 362.175781 211.027344 363.386719 213.316406 364.46875 C 215.601562 365.550781 217.945312 366.496094 220.339844 367.304688 C 222.738281 368.109375 225.175781 368.777344 227.652344 369.296875 C 230.125 369.820312 232.625 370.195312 235.144531 370.421875 C 237.664062 370.652344 240.1875 370.734375 242.714844 370.667969 C 264.289062 370.828125 285.855469 371.035156 307.417969 371.285156 L 340.664062 371.613281 C 349.832031 371.382812 351.261719 366.113281 351.300781 362.949219 C 351.300781 357.542969 347.382812 354.230469 340.78125 354.101562 L 339.300781 354.101562 C 324.003906 353.976562 308.703125 353.832031 293.398438 353.667969 L 291.761719 353.667969 C 291.398438 353.691406 291.03125 353.679688 290.667969 353.628906 C 290.304688 353.578125 289.949219 353.492188 289.601562 353.367188 C 289.253906 353.246094 288.925781 353.085938 288.609375 352.894531 C 288.296875 352.707031 288.003906 352.484375 287.734375 352.234375 C 287.46875 351.984375 287.226562 351.707031 287.015625 351.40625 C 286.800781 351.105469 286.621094 350.789062 286.476562 350.453125 C 286.328125 350.113281 286.21875 349.765625 286.140625 349.40625 C 286.066406 349.046875 286.027344 348.683594 286.027344 348.316406 C 286 347.628906 286.105469 346.960938 286.347656 346.316406 C 286.585938 345.671875 286.945312 345.101562 287.417969 344.601562 C 288.003906 344.054688 288.671875 343.640625 289.421875 343.363281 C 290.175781 343.082031 290.949219 342.960938 291.75 342.992188 C 303.074219 342.992188 314.398438 343.117188 325.710938 343.242188 L 327.179688 343.242188 C 336.78125 343.359375 346.390625 343.457031 356.003906 343.53125 C 356.835938 343.554688 357.65625 343.476562 358.46875 343.289062 C 359.28125 343.101562 360.054688 342.8125 360.792969 342.425781 C 361.527344 342.039062 362.207031 341.5625 362.820312 341 C 363.433594 340.4375 363.96875 339.808594 364.417969 339.105469 C 364.804688 338.457031 365.101562 337.769531 365.308594 337.039062 C 365.515625 336.3125 365.625 335.570312 365.640625 334.8125 C 365.652344 334.058594 365.570312 333.3125 365.386719 332.578125 C 365.207031 331.84375 364.9375 331.144531 364.574219 330.480469 C 364.128906 329.679688 363.578125 328.957031 362.921875 328.316406 C 362.265625 327.675781 361.53125 327.144531 360.71875 326.71875 C 359.90625 326.289062 359.050781 325.988281 358.152344 325.8125 C 357.253906 325.636719 356.347656 325.59375 355.433594 325.683594 C 335.632812 325.5625 315.886719 325.375 296.121094 325.191406 L 294.542969 325.152344 C 293.230469 325.164062 291.925781 325.09375 290.625 324.941406 C 290.117188 324.9375 289.628906 324.839844 289.15625 324.652344 C 288.6875 324.46875 288.261719 324.203125 287.890625 323.859375 C 287.515625 323.519531 287.214844 323.121094 286.988281 322.667969 C 286.761719 322.210938 286.621094 321.734375 286.570312 321.230469 C 286.484375 319.257812 287.019531 317.476562 288.179688 315.882812 C 289.578125 314.835938 291.152344 314.367188 292.894531 314.484375 Z M 115.097656 289.832031 C 115.261719 291.558594 115.566406 293.257812 116.019531 294.929688 C 116.429688 296.585938 117.207031 298.046875 118.355469 299.3125 C 119.734375 300.679688 121.386719 301.523438 123.304688 301.84375 C 124.175781 302.066406 125.058594 302.144531 125.957031 302.082031 C 126.855469 302.015625 127.71875 301.8125 128.546875 301.464844 C 129.378906 301.117188 130.132812 300.648438 130.808594 300.058594 C 131.488281 299.464844 132.050781 298.78125 132.507812 298.003906 C 133.769531 295.8125 134.3125 293.457031 134.132812 290.933594 C 133.757812 285.363281 133.386719 279.921875 132.953125 274.429688 L 132.023438 262.164062 C 131.40625 254.179688 130.722656 246.128906 129.980469 238.195312 C 129.625 234.050781 128.789062 230 127.476562 226.050781 C 126.234375 222.464844 124.734375 218.992188 122.976562 215.628906 C 121.214844 212.269531 119.21875 209.054688 116.980469 205.988281 C 114.746094 202.925781 112.292969 200.042969 109.628906 197.34375 C 106.964844 194.644531 104.113281 192.15625 101.078125 189.878906 C 100.511719 189.480469 100.007812 189.015625 99.5625 188.480469 C 99.121094 187.949219 98.75 187.371094 98.457031 186.742188 C 98.167969 186.117188 97.960938 185.460938 97.835938 184.777344 C 97.714844 184.097656 97.683594 183.410156 97.742188 182.71875 C 97.859375 180.449219 97.863281 166.78125 97.863281 150.488281 C 95.835938 151.199219 93.753906 151.6875 91.621094 151.945312 C 89.488281 152.207031 87.351562 152.234375 85.210938 152.027344 C 83.070312 151.824219 80.976562 151.390625 78.929688 150.730469 C 76.882812 150.074219 74.933594 149.199219 73.074219 148.117188 C 72.089844 147.40625 71.179688 146.617188 70.339844 145.742188 L 69.917969 145.324219 C 68.644531 144.121094 67.511719 142.796875 66.511719 141.351562 C 65.515625 139.910156 64.679688 138.378906 64 136.761719 C 63.320312 135.144531 62.816406 133.476562 62.484375 131.753906 C 62.15625 130.03125 62.003906 128.292969 62.035156 126.539062 C 62.078125 124.601562 62.351562 122.695312 62.851562 120.820312 L 29.085938 120.863281 L 29.046875 146.898438 C 29.046875 164.65625 28.984375 183.117188 29.046875 186.394531 C 29.078125 187.027344 29.03125 187.652344 28.90625 188.269531 C 28.777344 188.890625 28.578125 189.484375 28.304688 190.050781 C 28.027344 190.617188 27.6875 191.144531 27.28125 191.625 C 26.871094 192.109375 26.410156 192.535156 25.898438 192.898438 C 23.902344 194.457031 22.003906 196.121094 20.203125 197.898438 C 18.398438 199.675781 16.707031 201.550781 15.125 203.527344 C 13.542969 205.5 12.082031 207.5625 10.738281 209.707031 C 9.398438 211.851562 8.183594 214.070312 7.101562 216.355469 C 6.019531 218.644531 5.074219 220.984375 4.261719 223.382812 C 3.453125 225.78125 2.785156 228.214844 2.261719 230.691406 C 1.738281 233.167969 1.359375 235.664062 1.125 238.183594 C 0.890625 240.703125 0.804688 243.230469 0.867188 245.757812 C 0.730469 269.757812 0.523438 293.753906 0.246094 317.75 L 0 343.585938 C -0.125 345.117188 0.0546875 346.613281 0.527344 348.074219 C 1.003906 349.535156 1.742188 350.847656 2.742188 352.015625 C 3.550781 352.777344 4.472656 353.351562 5.511719 353.742188 C 6.546875 354.136719 7.621094 354.3125 8.730469 354.273438 C 9.8125 354.3125 10.855469 354.144531 11.867188 353.761719 C 12.878906 353.382812 13.777344 352.820312 14.5625 352.078125 C 15.574219 350.9375 16.332031 349.648438 16.835938 348.207031 C 17.335938 346.765625 17.539062 345.285156 17.449219 343.761719 L 17.449219 342.335938 C 17.628906 327.957031 17.746094 313.542969 17.863281 299.1875 L 17.863281 296.78125 C 17.855469 296.035156 17.878906 295.292969 17.945312 294.550781 C 17.929688 294.191406 17.953125 293.832031 18.011719 293.472656 C 18.074219 293.113281 18.167969 292.765625 18.296875 292.429688 C 18.429688 292.089844 18.589844 291.769531 18.789062 291.464844 C 18.984375 291.160156 19.207031 290.878906 19.460938 290.617188 C 19.714844 290.359375 19.992188 290.128906 20.292969 289.925781 C 20.59375 289.722656 20.910156 289.554688 21.246094 289.414062 C 21.582031 289.277344 21.929688 289.175781 22.285156 289.109375 C 22.640625 289.042969 23 289.011719 23.363281 289.019531 C 23.726562 289.023438 24.082031 289.066406 24.4375 289.144531 C 24.789062 289.226562 25.132812 289.339844 25.460938 289.488281 C 25.792969 289.636719 26.105469 289.820312 26.398438 290.03125 C 26.691406 290.246094 26.960938 290.484375 27.203125 290.753906 C 27.449219 291.019531 27.664062 291.3125 27.847656 291.621094 C 28.035156 291.933594 28.1875 292.261719 28.304688 292.605469 C 28.421875 292.945312 28.507812 293.296875 28.554688 293.65625 C 28.601562 294.015625 28.609375 294.375 28.582031 294.738281 L 28.230469 336.816406 C 28.132812 344.207031 28.027344 351.59375 28.027344 358.988281 C 28 359.820312 28.078125 360.636719 28.265625 361.449219 C 28.449219 362.257812 28.734375 363.027344 29.121094 363.765625 C 29.507812 364.5 29.980469 365.171875 30.539062 365.785156 C 31.097656 366.398438 31.726562 366.929688 32.425781 367.378906 C 33.078125 367.769531 33.769531 368.070312 34.5 368.28125 C 35.230469 368.488281 35.976562 368.601562 36.734375 368.617188 C 37.496094 368.628906 38.246094 368.546875 38.984375 368.363281 C 39.722656 368.179688 40.421875 367.90625 41.089844 367.542969 C 41.890625 367.09375 42.609375 366.542969 43.25 365.886719 C 43.890625 365.230469 44.421875 364.496094 44.851562 363.6875 C 45.277344 362.875 45.582031 362.023438 45.761719 361.125 C 45.941406 360.226562 45.992188 359.320312 45.910156 358.40625 C 46.027344 339.695312 46.183594 320.980469 46.375 302.269531 L 46.375 298.171875 C 46.328125 296.679688 46.386719 295.195312 46.546875 293.710938 C 46.566406 293.164062 46.6875 292.640625 46.910156 292.144531 C 47.128906 291.644531 47.4375 291.203125 47.828125 290.820312 C 48.214844 290.4375 48.664062 290.140625 49.167969 289.929688 C 49.671875 289.722656 50.195312 289.609375 50.742188 289.601562 C 52.589844 289.589844 54.242188 290.152344 55.691406 291.296875 C 56.691406 292.691406 57.136719 294.246094 57.023438 295.957031 C 56.992188 306.082031 57.179688 312.597656 57.359375 318.96875 C 57.554688 325.976562 57.742188 332.585938 57.640625 343.585938 L 57.582031 348.046875 C 57.511719 352.578125 57.445312 357.113281 57.582031 361.664062 C 57.617188 362.230469 57.707031 362.789062 57.847656 363.339844 C 57.988281 363.890625 58.179688 364.421875 58.421875 364.9375 C 58.664062 365.453125 58.949219 365.941406 59.285156 366.402344 C 59.617188 366.859375 59.992188 367.285156 60.402344 367.675781 C 60.816406 368.066406 61.265625 368.414062 61.742188 368.722656 C 62.222656 369.027344 62.726562 369.285156 63.253906 369.496094 C 63.78125 369.710938 64.324219 369.871094 64.882812 369.980469 C 65.441406 370.085938 66.003906 370.144531 66.570312 370.148438 C 67.140625 370.148438 67.703125 370.101562 68.261719 369.996094 C 68.824219 369.894531 69.367188 369.738281 69.898438 369.535156 C 70.425781 369.328125 70.933594 369.074219 71.417969 368.773438 C 71.898438 368.472656 72.347656 368.128906 72.765625 367.746094 C 73.183594 367.359375 73.5625 366.9375 73.902344 366.480469 C 74.238281 366.023438 74.53125 365.539062 74.78125 365.027344 C 75.027344 364.515625 75.222656 363.984375 75.371094 363.4375 C 75.519531 362.886719 75.613281 362.328125 75.65625 361.761719 C 75.710938 360.746094 75.710938 359.742188 75.710938 358.710938 C 75.835938 345.949219 75.710938 336.84375 75.542969 327.945312 C 75.394531 318.859375 75.246094 309.464844 75.402344 296.03125 C 75.382812 294.546875 75.738281 293.160156 76.472656 291.871094 C 76.753906 291.382812 77.109375 290.957031 77.542969 290.597656 C 77.976562 290.238281 78.457031 289.960938 78.988281 289.773438 C 79.519531 289.585938 80.066406 289.496094 80.632812 289.503906 C 81.195312 289.515625 81.738281 289.621094 82.265625 289.824219 C 82.867188 290.019531 83.417969 290.3125 83.921875 290.699219 C 84.425781 291.082031 84.847656 291.542969 85.191406 292.074219 C 85.535156 292.605469 85.78125 293.179688 85.929688 293.796875 C 86.074219 294.414062 86.113281 295.035156 86.046875 295.667969 C 85.984375 305.765625 85.882812 315.859375 85.742188 325.945312 L 85.625 339.390625 C 85.558594 346.234375 85.488281 353.078125 85.488281 359.917969 C 85.464844 360.730469 85.550781 361.53125 85.738281 362.324219 C 85.925781 363.113281 86.214844 363.867188 86.601562 364.582031 C 86.992188 365.296875 87.464844 365.945312 88.027344 366.535156 C 88.585938 367.125 89.214844 367.632812 89.90625 368.054688 C 90.554688 368.429688 91.242188 368.714844 91.96875 368.910156 C 92.691406 369.105469 93.429688 369.203125 94.179688 369.203125 C 94.929688 369.203125 95.667969 369.105469 96.390625 368.910156 C 97.117188 368.714844 97.804688 368.429688 98.453125 368.054688 C 99.222656 367.585938 99.914062 367.015625 100.523438 366.351562 C 101.132812 365.683594 101.636719 364.945312 102.039062 364.136719 C 102.4375 363.328125 102.714844 362.476562 102.875 361.589844 C 103.035156 360.699219 103.066406 359.808594 102.96875 358.910156 L 103.222656 327.691406 C 103.328125 314.148438 103.449219 300.617188 103.589844 287.089844 C 103.589844 285.234375 104.160156 280.863281 108.539062 280.554688 L 109.039062 280.554688 C 109.789062 280.613281 110.515625 280.777344 111.21875 281.042969 C 112.371094 281.558594 114.113281 284.445312 115.097656 289.832031 Z M 372.078125 22.683594 C 371.285156 21.933594 370.382812 21.363281 369.363281 20.972656 C 368.34375 20.582031 367.289062 20.398438 366.199219 20.425781 C 365.101562 20.371094 364.035156 20.53125 363.003906 20.914062 C 361.972656 21.296875 361.058594 21.863281 360.261719 22.621094 C 359.246094 23.761719 358.488281 25.050781 357.984375 26.492188 C 357.484375 27.933594 357.277344 29.414062 357.363281 30.9375 L 357.363281 32.363281 C 357.191406 46.753906 357.054688 61.152344 356.957031 75.546875 L 356.957031 77.9375 C 356.96875 78.675781 356.945312 79.414062 356.882812 80.152344 C 356.894531 80.515625 356.871094 80.875 356.808594 81.230469 C 356.75 81.589844 356.652344 81.9375 356.523438 82.273438 C 356.390625 82.613281 356.226562 82.933594 356.03125 83.238281 C 355.832031 83.539062 355.609375 83.820312 355.355469 84.082031 C 355.101562 84.339844 354.824219 84.570312 354.519531 84.769531 C 354.21875 84.972656 353.902344 85.140625 353.566406 85.277344 C 353.230469 85.414062 352.886719 85.515625 352.527344 85.582031 C 352.171875 85.648438 351.8125 85.675781 351.453125 85.671875 C 351.089844 85.664062 350.730469 85.621094 350.378906 85.539062 C 350.023438 85.460938 349.683594 85.34375 349.351562 85.195312 C 349.023438 85.042969 348.710938 84.863281 348.417969 84.648438 C 348.125 84.4375 347.859375 84.195312 347.613281 83.925781 C 347.371094 83.660156 347.15625 83.371094 346.972656 83.058594 C 346.789062 82.746094 346.636719 82.417969 346.519531 82.074219 C 346.402344 81.734375 346.320312 81.382812 346.273438 81.023438 C 346.226562 80.664062 346.214844 80.304688 346.242188 79.941406 C 346.304688 68.597656 346.429688 57.28125 346.554688 45.957031 L 346.671875 33.964844 C 346.734375 27.871094 346.800781 21.785156 346.800781 15.691406 C 346.828125 14.859375 346.746094 14.039062 346.558594 13.230469 C 346.371094 12.421875 346.085938 11.648438 345.699219 10.914062 C 345.3125 10.175781 344.835938 9.503906 344.273438 8.890625 C 343.710938 8.277344 343.082031 7.75 342.382812 7.300781 C 341.730469 6.914062 341.035156 6.617188 340.304688 6.410156 C 339.574219 6.203125 338.832031 6.089844 338.070312 6.078125 C 337.3125 6.0625 336.5625 6.144531 335.828125 6.324219 C 335.089844 6.503906 334.386719 6.777344 333.71875 7.140625 C 332.921875 7.578125 332.203125 8.121094 331.5625 8.773438 C 330.925781 9.425781 330.394531 10.152344 329.96875 10.960938 C 329.546875 11.769531 329.246094 12.617188 329.074219 13.515625 C 328.902344 14.410156 328.863281 15.308594 328.953125 16.21875 L 328.398438 75.621094 L 328.398438 76.515625 C 328.441406 78.003906 328.382812 79.488281 328.21875 80.96875 C 327.851562 83.445312 326.453125 84.992188 324.503906 85.089844 C 323.542969 85.136719 322.601562 85.019531 321.683594 84.734375 C 320.761719 84.453125 319.917969 84.027344 319.144531 83.449219 C 318.125 82.054688 317.664062 80.488281 317.773438 78.761719 C 317.773438 68.636719 317.625 62.113281 317.445312 55.742188 C 317.246094 48.734375 317.0625 42.125 317.152344 31.125 L 317.214844 26.667969 C 317.289062 22.132812 317.359375 17.597656 317.214844 13.121094 C 317.207031 12.542969 317.140625 11.96875 317.019531 11.402344 C 316.894531 10.835938 316.71875 10.285156 316.484375 9.753906 C 316.25 9.222656 315.96875 8.722656 315.632812 8.246094 C 315.300781 7.773438 314.921875 7.335938 314.5 6.9375 C 314.078125 6.539062 313.621094 6.1875 313.128906 5.882812 C 312.636719 5.574219 312.117188 5.320312 311.574219 5.117188 C 311.027344 4.914062 310.46875 4.769531 309.898438 4.679688 C 309.324219 4.589844 308.746094 4.558594 308.167969 4.582031 C 307.597656 4.566406 307.027344 4.609375 306.464844 4.703125 C 305.902344 4.796875 305.351562 4.945312 304.816406 5.148438 C 304.28125 5.351562 303.773438 5.601562 303.289062 5.902344 C 302.800781 6.207031 302.347656 6.550781 301.929688 6.941406 C 301.511719 7.328125 301.136719 7.757812 300.800781 8.21875 C 300.464844 8.683594 300.175781 9.171875 299.9375 9.691406 C 299.699219 10.210938 299.511719 10.746094 299.375 11.304688 C 299.238281 11.859375 299.160156 12.421875 299.132812 12.992188 C 299.132812 13.433594 299.132812 13.910156 299.132812 14.519531 C 299.132812 15.015625 299.132812 15.519531 299.097656 16.179688 C 298.980469 28.792969 299.128906 37.898438 299.269531 46.804688 C 299.417969 55.890625 299.566406 65.28125 299.410156 78.71875 C 299.449219 80.230469 299.078125 81.636719 298.296875 82.9375 C 298.015625 83.421875 297.660156 83.839844 297.230469 84.195312 C 296.796875 84.546875 296.316406 84.816406 295.789062 85 C 295.261719 85.183594 294.71875 85.269531 294.160156 85.257812 C 293.601562 85.242188 293.0625 85.136719 292.542969 84.929688 C 291.941406 84.730469 291.390625 84.4375 290.890625 84.046875 C 290.390625 83.660156 289.96875 83.203125 289.625 82.667969 C 289.28125 82.136719 289.035156 81.566406 288.886719 80.949219 C 288.742188 80.335938 288.699219 79.710938 288.761719 79.082031 C 288.824219 68.996094 288.949219 58.921875 289.070312 48.816406 L 289.1875 35.355469 C 289.25 28.519531 289.320312 21.675781 289.320312 14.832031 C 289.34375 14.015625 289.257812 13.210938 289.066406 12.421875 C 288.878906 11.628906 288.585938 10.875 288.199219 10.160156 C 287.808594 9.445312 287.332031 8.792969 286.765625 8.203125 C 286.203125 7.613281 285.574219 7.109375 284.875 6.6875 C 284.226562 6.3125 283.539062 6.027344 282.8125 5.835938 C 282.089844 5.644531 281.351562 5.550781 280.601562 5.550781 C 279.851562 5.554688 279.117188 5.65625 278.390625 5.851562 C 277.667969 6.050781 276.984375 6.339844 276.335938 6.71875 C 275.574219 7.1875 274.894531 7.753906 274.289062 8.414062 C 273.6875 9.078125 273.1875 9.808594 272.789062 10.609375 C 272.394531 11.410156 272.113281 12.253906 271.953125 13.132812 C 271.792969 14.015625 271.757812 14.898438 271.84375 15.789062 C 271.84375 18.097656 271.84375 20.445312 271.78125 22.851562 C 271.660156 44.398438 271.472656 65.972656 271.226562 87.578125 C 271.226562 89.433594 270.664062 93.816406 266.390625 94.121094 C 265.894531 94.132812 265.402344 94.101562 264.914062 94.027344 C 262.617188 93.945312 260.929688 91.917969 260.371094 88.496094 C 260.148438 87.332031 259.945312 86.097656 259.710938 84.664062 C 259.441406 83.046875 259.175781 81.433594 258.824219 79.769531 C 258.640625 78.890625 258.332031 78.058594 257.898438 77.273438 C 257.460938 76.488281 256.914062 75.785156 256.265625 75.167969 C 255.613281 74.546875 254.882812 74.042969 254.078125 73.648438 C 253.269531 73.25 252.421875 72.984375 251.535156 72.851562 C 250.664062 72.632812 249.78125 72.558594 248.882812 72.625 C 247.988281 72.695312 247.125 72.902344 246.296875 73.246094 C 245.46875 73.59375 244.714844 74.0625 244.039062 74.652344 C 243.363281 75.242188 242.796875 75.925781 242.339844 76.699219 C 241.082031 78.894531 240.542969 81.25 240.71875 83.773438 C 241.058594 88.773438 241.441406 93.671875 241.832031 98.625 L 241.957031 100.214844 C 242.203125 104.339844 242.511719 108.429688 242.882812 112.484375 C 243.503906 120.53125 244.1875 128.574219 244.863281 136.515625 C 245.226562 140.652344 246.0625 144.695312 247.375 148.636719 C 248.617188 152.222656 250.117188 155.695312 251.875 159.058594 C 253.632812 162.417969 255.628906 165.632812 257.867188 168.699219 C 260.101562 171.761719 262.554688 174.644531 265.21875 177.347656 C 267.882812 180.046875 270.734375 182.535156 273.769531 184.8125 C 274.335938 185.210938 274.839844 185.675781 275.285156 186.207031 C 275.730469 186.738281 276.097656 187.316406 276.390625 187.945312 C 276.683594 188.570312 276.890625 189.226562 277.011719 189.90625 C 277.132812 190.589844 277.164062 191.277344 277.105469 191.964844 C 276.992188 194.238281 276.980469 207.90625 276.980469 224.195312 C 279.828125 223.933594 282.148438 223.839844 283.683594 223.796875 C 296.980469 223.445312 300.878906 225.949219 302.023438 226.761719 C 302.925781 227.402344 303.753906 228.132812 304.5 228.953125 L 304.917969 229.367188 C 306.191406 230.570312 307.328125 231.894531 308.324219 233.335938 C 309.324219 234.777344 310.160156 236.308594 310.839844 237.921875 C 311.519531 239.539062 312.027344 241.207031 312.355469 242.929688 C 312.6875 244.652344 312.839844 246.386719 312.808594 248.140625 C 312.773438 250.078125 312.511719 251.984375 312.03125 253.859375 L 345.6875 254.570312 C 345.804688 235.679688 345.847656 193.179688 345.796875 188.277344 C 345.765625 187.648438 345.8125 187.023438 345.941406 186.40625 C 346.066406 185.785156 346.265625 185.191406 346.539062 184.625 C 346.816406 184.054688 347.15625 183.53125 347.5625 183.046875 C 347.96875 182.566406 348.429688 182.140625 348.941406 181.773438 C 350.9375 180.21875 352.835938 178.550781 354.636719 176.773438 C 356.4375 174.996094 358.128906 173.121094 359.710938 171.144531 C 361.289062 169.171875 362.753906 167.109375 364.09375 164.964844 C 365.433594 162.820312 366.644531 160.605469 367.726562 158.316406 C 368.808594 156.03125 369.753906 153.6875 370.5625 151.289062 C 371.371094 148.890625 372.035156 146.457031 372.5625 143.980469 C 373.085938 141.503906 373.460938 139.007812 373.695312 136.488281 C 373.925781 133.96875 374.011719 131.445312 373.949219 128.914062 C 374.085938 104.917969 374.289062 80.917969 374.566406 56.921875 L 374.820312 31.082031 C 374.9375 29.554688 374.761719 28.0625 374.285156 26.609375 C 373.8125 25.15625 373.074219 23.847656 372.078125 22.683594 Z M 372.078125 22.683594 " fill-opacity="1" fill-rule="nonzero"/></g></svg>