<svg xmlns="http://www.w3.org/2000/svg" xmlns:xlink="http://www.w3.org/1999/xlink" width="500" zoomAndPan="magnify" viewBox="0 0 375 374.999991" height="500" preserveAspectRatio="xMidYMid meet" version="1.0"><path fill="#5e4fff" d="M 336.648438 77.953125 L 186.222656 0 L 37.109375 80.394531 L 38.242188 217.503906 C 38.601562 225.046875 39.84375 232.4375 41.976562 239.675781 C 44.109375 246.917969 47.070312 253.804688 50.855469 260.332031 C 51.425781 261.214844 51.9375 262.132812 52.382812 263.082031 C 61.484375 278.828125 72.40625 293.1875 85.152344 306.160156 C 97.492188 318.988281 110.898438 330.582031 125.375 340.9375 C 139.847656 351.296875 155.148438 360.246094 171.273438 367.785156 C 172.136719 368.105469 172.976562 368.472656 173.796875 368.886719 C 178.933594 371.085938 184.3125 373.179688 189.308594 374.863281 C 209.625 367.3125 228.582031 357.214844 246.179688 344.570312 C 247.078125 343.828125 248.023438 343.160156 249.019531 342.558594 C 264.703125 331.261719 279.140625 318.546875 292.328125 304.414062 C 321.839844 272.722656 337.96875 240.960938 337.757812 214.988281 Z M 267.394531 142.960938 L 164.570312 245.839844 C 163.601562 246.820312 162.480469 247.574219 161.210938 248.101562 C 159.9375 248.632812 158.613281 248.898438 157.234375 248.898438 L 157.203125 248.898438 C 155.832031 248.898438 154.515625 248.640625 153.25 248.117188 C 151.984375 247.597656 150.863281 246.851562 149.894531 245.882812 C 149.472656 245.464844 149.09375 245.011719 148.753906 244.523438 L 106.414062 194.207031 C 106.015625 193.65625 105.675781 193.070312 105.390625 192.449219 C 105.109375 191.828125 104.886719 191.1875 104.730469 190.523438 C 104.574219 189.859375 104.484375 189.1875 104.460938 188.503906 C 104.4375 187.824219 104.480469 187.148438 104.589844 186.472656 C 104.699219 185.800781 104.871094 185.144531 105.109375 184.507812 C 105.347656 183.867188 105.648438 183.257812 106.003906 182.679688 C 106.363281 182.097656 106.773438 181.558594 107.238281 181.058594 C 107.703125 180.5625 108.214844 180.113281 108.765625 179.714844 C 109.320312 179.316406 109.90625 178.976562 110.527344 178.691406 C 111.148438 178.410156 111.789062 178.1875 112.453125 178.03125 C 113.117188 177.875 113.789062 177.785156 114.46875 177.761719 C 115.152344 177.738281 115.828125 177.78125 116.5 177.890625 C 117.175781 178 117.828125 178.171875 118.46875 178.410156 C 119.105469 178.648438 119.714844 178.949219 120.296875 179.304688 C 120.875 179.664062 121.414062 180.074219 121.914062 180.539062 C 122.414062 181.003906 122.863281 181.515625 123.261719 182.066406 L 158.453125 222.625 L 252.652344 128.296875 C 253.140625 127.828125 253.667969 127.410156 254.238281 127.042969 C 254.804688 126.675781 255.402344 126.363281 256.03125 126.113281 C 256.660156 125.859375 257.304688 125.667969 257.96875 125.535156 C 258.632812 125.40625 259.304688 125.339844 259.980469 125.339844 C 260.65625 125.335938 261.328125 125.398438 261.996094 125.523438 C 262.660156 125.648438 263.304688 125.839844 263.933594 126.085938 C 264.566406 126.335938 265.164062 126.644531 265.734375 127.007812 C 266.304688 127.371094 266.835938 127.789062 267.328125 128.253906 C 267.8125 128.734375 268.246094 129.257812 268.628906 129.824219 C 269.007812 130.390625 269.332031 130.988281 269.597656 131.617188 C 269.859375 132.246094 270.0625 132.898438 270.195312 133.566406 C 270.332031 134.234375 270.402344 134.910156 270.40625 135.59375 C 270.410156 136.277344 270.34375 136.953125 270.214844 137.625 C 270.085938 138.292969 269.890625 138.945312 269.632812 139.578125 C 269.375 140.210938 269.054688 140.808594 268.679688 141.378906 C 268.304688 141.949219 267.875 142.476562 267.394531 142.960938 Z M 267.394531 142.960938 " fill-opacity="1" fill-rule="nonzero"/></svg>